<svg width="31" height="29" viewBox="0 0 31 29" fill="none" xmlns="http://www.w3.org/2000/svg">
<path d="M30 14.5C30 21.8941 23.572 28 15.5 28C7.42801 28 1 21.8941 1 14.5C1 7.10593 7.42801 1 15.5 1C23.572 1 30 7.10593 30 14.5Z" stroke="#53DFE7" stroke-width="2"/>
<path d="M14.2929 23.7071C14.6834 24.0976 15.3166 24.0976 15.7071 23.7071L22.0711 17.3431C22.4616 16.9526 22.4616 16.3195 22.0711 15.9289C21.6805 15.5384 21.0474 15.5384 20.6569 15.9289L15 21.5858L9.34315 15.9289C8.95262 15.5384 8.31946 15.5384 7.92893 15.9289C7.53841 16.3195 7.53841 16.9526 7.92893 17.3431L14.2929 23.7071ZM14 6L14 23L16 23L16 6L14 6Z" fill="#38A4AA"/>
</svg>
