<svg width="18" height="21" viewBox="0 0 18 21" fill="none" xmlns="http://www.w3.org/2000/svg">
<circle cx="9" cy="9" r="9" fill="black"/>
<g filter="url(#filter0_d_73_2)">
<path d="M6.98633 4.46875L8.79688 7.58008L10.6074 4.46875H12.3008L9.72266 8.69336L12.3652 13H10.6543L8.79688 9.83008L6.93945 13H5.22266L7.87109 8.69336L5.28711 4.46875H6.98633Z" fill="#07565A"/>
<path d="M6.98633 4.46875L7.85064 3.96579L7.5614 3.46875H6.98633V4.46875ZM8.79688 7.58008L7.93257 8.08304L8.79688 9.56831L9.66118 8.08304L8.79688 7.58008ZM10.6074 4.46875V3.46875H10.0324L9.74311 3.96579L10.6074 4.46875ZM12.3008 4.46875L13.1544 4.98967L14.0825 3.46875H12.3008V4.46875ZM9.72266 8.69336L8.86905 8.17244L8.55028 8.69478L8.87032 9.21636L9.72266 8.69336ZM12.3652 13V14H14.1521L13.2176 12.477L12.3652 13ZM10.6543 13L9.7915 13.5056L10.0812 14H10.6543V13ZM8.79688 9.83008L9.65967 9.32452L8.79688 7.85206L7.93408 9.32452L8.79688 9.83008ZM6.93945 13V14H7.51253L7.80225 13.5056L6.93945 13ZM5.22266 13L4.37084 12.4762L3.43373 14H5.22266V13ZM7.87109 8.69336L8.72291 9.2172L9.04419 8.69477L8.72417 8.17157L7.87109 8.69336ZM5.28711 4.46875V3.46875H3.50323L4.43403 4.99054L5.28711 4.46875ZM6.12202 4.97171L7.93257 8.08304L9.66118 7.07712L7.85064 3.96579L6.12202 4.97171ZM9.66118 8.08304L11.4717 4.97171L9.74311 3.96579L7.93257 7.07712L9.66118 8.08304ZM10.6074 5.46875H12.3008V3.46875H10.6074V5.46875ZM11.4472 3.94783L8.86905 8.17244L10.5763 9.21428L13.1544 4.98967L11.4472 3.94783ZM8.87032 9.21636L11.5129 13.523L13.2176 12.477L10.575 8.17036L8.87032 9.21636ZM12.3652 12H10.6543V14H12.3652V12ZM11.5171 12.4944L9.65967 9.32452L7.93408 10.3356L9.7915 13.5056L11.5171 12.4944ZM7.93408 9.32452L6.07666 12.4944L7.80225 13.5056L9.65967 10.3356L7.93408 9.32452ZM6.93945 12H5.22266V14H6.93945V12ZM6.07447 13.5238L8.72291 9.2172L7.01928 8.16952L4.37084 12.4762L6.07447 13.5238ZM8.72417 8.17157L6.14019 3.94696L4.43403 4.99054L7.01802 9.21514L8.72417 8.17157ZM5.28711 5.46875H6.98633V3.46875H5.28711V5.46875Z" fill="black"/>
</g>
<defs>
<filter id="filter0_d_73_2" x="1.22266" y="4.46875" width="15.1426" height="16.5312" filterUnits="userSpaceOnUse" color-interpolation-filters="sRGB">
<feFlood flood-opacity="0" result="BackgroundImageFix"/>
<feColorMatrix in="SourceAlpha" type="matrix" values="0 0 0 0 0 0 0 0 0 0 0 0 0 0 0 0 0 0 127 0" result="hardAlpha"/>
<feOffset dy="4"/>
<feGaussianBlur stdDeviation="2"/>
<feComposite in2="hardAlpha" operator="out"/>
<feColorMatrix type="matrix" values="0 0 0 0 0 0 0 0 0 0 0 0 0 0 0 0 0 0 0.25 0"/>
<feBlend mode="normal" in2="BackgroundImageFix" result="effect1_dropShadow_73_2"/>
<feBlend mode="normal" in="SourceGraphic" in2="effect1_dropShadow_73_2" result="shape"/>
</filter>
</defs>
</svg>
