<svg width="21" height="21" viewBox="0 0 21 21" fill="none" xmlns="http://www.w3.org/2000/svg">
<path fill-rule="evenodd" clip-rule="evenodd" d="M6.09902 2.70312C4.02828 2.70312 2.34961 4.38179 2.34961 6.45253V15.1598C2.34961 17.2305 4.02828 18.9092 6.09902 18.9092H14.8063C16.877 18.9092 18.5557 17.2305 18.5557 15.1598V6.45253C18.5557 4.38179 16.877 2.70312 14.8063 2.70312H6.09902ZM0.349609 6.45253C0.349609 3.27722 2.92371 0.703125 6.09902 0.703125H14.8063C17.9816 0.703125 20.5557 3.27722 20.5557 6.45253V15.1598C20.5557 18.3351 17.9816 20.9092 14.8063 20.9092H6.09902C2.92371 20.9092 0.349609 18.3351 0.349609 15.1598V6.45253ZM10.4524 7.84851C8.81885 7.84851 7.49458 9.17278 7.49458 10.8063C7.49458 12.4399 8.81885 13.7642 10.4524 13.7642C12.086 13.7642 13.4103 12.4399 13.4103 10.8063C13.4103 9.17278 12.086 7.84851 10.4524 7.84851ZM5.49458 10.8063C5.49458 8.06821 7.71428 5.84851 10.4524 5.84851C13.1906 5.84851 15.4103 8.06821 15.4103 10.8063C15.4103 13.5445 13.1906 15.7642 10.4524 15.7642C7.71428 15.7642 5.49458 13.5445 5.49458 10.8063ZM16.7851 5.66088C16.7851 6.31663 16.2535 6.84823 15.5977 6.84823C14.942 6.84823 14.4104 6.31663 14.4104 5.66088C14.4104 5.00512 14.942 4.47353 15.5977 4.47353C16.2535 4.47353 16.7851 5.00512 16.7851 5.66088Z" fill="white"/>
</svg>
