<svg width="21" height="18" viewBox="0 0 21 18" fill="none" xmlns="http://www.w3.org/2000/svg">
<path d="M1.25076 15.4762C1.25076 15.4762 5.15685 14.7143 5.93807 12.4286C5.93807 12.4286 -0.311675 10.1429 1.25076 1.76191C1.25076 1.76191 4.37563 5.57143 9.06294 6.33334V4.8098C9.06303 3.93452 9.37211 3.08596 9.93821 2.40679C10.5043 1.72761 11.2929 1.25922 12.1715 1.08039C13.05 0.901547 13.9649 1.02316 14.7623 1.42477C15.5597 1.82639 16.191 2.48352 16.5501 3.28568L20 3.28572L16.8751 6.33334C16.8751 11.6667 12.969 17 5.93807 17C2.8132 17 1.25076 15.4762 1.25076 15.4762Z" stroke="white" stroke-width="2" stroke-linecap="round" stroke-linejoin="round"/>
</svg>
