<svg width="220" height="133" viewBox="0 0 220 133" fill="none" xmlns="http://www.w3.org/2000/svg">
<g opacity="0.5">
<path opacity="0.5" d="M97.4444 65.9619L90.1445 66.1124L88.9512 67.7504V73.4102L90.4413 74.4527H97.4444L98.9345 72.8147V67.4516L97.4444 65.9619Z" fill="black"/>
<path opacity="0.2" d="M97.292 66.8558C97.292 66.8558 90.5878 67.8984 89.9922 66.8558L90.1427 66.1121L97.292 65.9551V66.8558Z" fill="black"/>
<path opacity="0.5" d="M98.0401 82.3456L99.2313 83.5386V89.2093L98.0401 90.3827C98.0401 90.3827 93.7204 91.8724 90.8886 90.6793L89.5469 89.3402V83.6695L90.7402 82.3281L98.0401 82.3456Z" fill="black"/>
<path opacity="0.2" d="M97.7412 83.687C97.7412 83.687 92.527 84.8779 90.7402 83.687V82.3457H98.0401L97.7412 83.687Z" fill="black"/>
<path opacity="0.5" d="M95.2085 74.4136V82.4704C95.1915 82.7894 95.0489 83.0888 94.8118 83.3029C94.5746 83.5171 94.2623 83.6287 93.9431 83.6132C93.6239 83.6287 93.3116 83.5171 93.0744 83.3029C92.8373 83.0888 92.6947 82.7894 92.6777 82.4704V74.4136C92.6777 73.7287 93.3322 73.1987 94.0914 73.2773C94.3851 73.2953 94.6618 73.4214 94.868 73.6312C95.0743 73.841 95.1955 74.1197 95.2085 74.4136Z" fill="black"/>
<path opacity="0.5" d="M109.136 66.1934L101.836 66.3417L100.643 67.9796V73.6394L102.133 74.682H109.136L110.626 73.044V67.6808L109.136 66.1934Z" fill="black"/>
<path opacity="0.2" d="M108.985 67.0854C108.985 67.0854 102.281 68.1279 101.686 67.0854L101.834 66.3417L108.985 66.1934V67.0854Z" fill="black"/>
<path opacity="0.5" d="M109.726 82.5742L110.917 83.7672V89.438L109.726 90.6179C109.726 90.6179 105.404 92.1076 102.574 90.9145L101.232 89.5754V83.9156L102.426 82.5742H109.726Z" fill="black"/>
<path opacity="0.2" d="M109.433 83.9156C109.433 83.9156 104.218 85.1064 102.432 83.9156V82.5742H109.727L109.433 83.9156Z" fill="black"/>
<path opacity="0.5" d="M106.89 74.6421V82.6989C106.873 83.0177 106.73 83.3167 106.493 83.5308C106.256 83.7448 105.944 83.8566 105.625 83.8417C105.306 83.8572 104.993 83.7457 104.755 83.5316C104.518 83.3175 104.375 83.0181 104.357 82.6989V74.6421C104.357 73.9572 105.012 73.4273 105.773 73.5058C106.067 73.5238 106.344 73.6499 106.55 73.8597C106.756 74.0695 106.877 74.3482 106.89 74.6421Z" fill="black"/>
<path opacity="0.5" d="M124.02 70.501L118.009 70.6253L117.027 71.9732V76.6319L118.253 77.4912H124.02L125.246 76.1412V71.7267L124.02 70.501Z" fill="black"/>
<path opacity="0.2" d="M123.895 71.2382C123.895 71.2382 118.378 72.0953 117.887 71.2382L118.009 70.6253L123.899 70.501L123.895 71.2382Z" fill="black"/>
<path opacity="0.5" d="M124.508 83.9873L125.49 84.9688V89.6275L124.508 90.6089C124.508 90.6089 120.952 91.8347 118.618 90.8532L117.514 89.7496V85.0909L118.495 83.9873H124.508Z" fill="black"/>
<path opacity="0.2" d="M124.264 85.0909C124.264 85.0909 119.97 86.0724 118.5 85.0909V83.9873H124.508L124.264 85.0909Z" fill="black"/>
<path opacity="0.5" d="M122.177 77.4577V84.0902C122.163 84.353 122.045 84.5994 121.85 84.7756C121.655 84.9518 121.397 85.0433 121.134 85.0303C120.872 85.0433 120.615 84.9517 120.42 84.7754C120.224 84.5992 120.107 84.3528 120.094 84.0902V77.4577C120.102 77.3174 120.14 77.1804 120.204 77.0555C120.269 76.9306 120.358 76.8206 120.468 76.7324C120.577 76.6443 120.704 76.5801 120.84 76.5438C120.976 76.5076 121.118 76.5002 121.257 76.522C121.498 76.5368 121.726 76.6406 121.896 76.8134C122.066 76.9861 122.166 77.2156 122.177 77.4577Z" fill="black"/>
<path opacity="0.5" d="M133.642 70.6895L127.632 70.8116L126.652 72.1595V76.8204L127.878 77.6775H133.642L134.869 76.3296V71.9152L133.642 70.6895Z" fill="black"/>
<path opacity="0.2" d="M133.52 71.4245C133.52 71.4245 128.001 72.2838 127.51 71.4245L127.632 70.8116L133.522 70.6895L133.52 71.4245Z" fill="black"/>
<path opacity="0.5" d="M134.133 84.1777L135.112 85.157V89.8157L134.133 90.7972C134.133 90.7972 130.575 92.0229 128.242 91.0437L127.141 89.9466V85.2813L128.122 84.1777H134.133Z" fill="black"/>
<path opacity="0.2" d="M133.887 85.2813C133.887 85.2813 129.596 86.2606 128.123 85.2813V84.1777H134.134L133.887 85.2813Z" fill="black"/>
<path opacity="0.5" d="M131.804 77.6451V84.2754C131.79 84.5382 131.673 84.7846 131.477 84.9608C131.282 85.137 131.024 85.2285 130.762 85.2155C130.499 85.2285 130.241 85.137 130.046 84.9608C129.851 84.7846 129.733 84.5382 129.719 84.2754V77.6451C129.719 77.0824 130.264 76.6462 130.884 76.7116C131.125 76.7259 131.353 76.8292 131.523 77.0016C131.693 77.174 131.794 77.4032 131.804 77.6451Z" fill="black"/>
</g>
<path d="M217.483 94.8467C217.013 93.9997 216.134 93.4423 215.21 93.1854C214.274 92.9614 213.307 92.901 212.35 93.0069C210.805 93.1163 209.274 93.3678 207.775 93.758C206.846 94.0019 205.882 94.3285 205.255 95.0644C205.238 95.0862 205.218 95.1123 205.198 95.1341C204.239 95.3845 203.286 95.7699 202.357 96.0834C201.424 96.3915 200.476 96.6481 199.515 96.852C200.772 96.14 201.996 95.3867 203.032 94.3807C203.522 93.9073 203.961 93.3849 204.344 92.8218C205.054 93.0244 205.799 93.0741 206.529 92.9677C208.009 92.7151 209.205 91.6613 210.318 90.6336L213.896 87.3545C214.466 86.832 215.046 86.2964 215.426 85.6127C215.94 84.6612 215.985 83.529 215.999 82.4425C216.016 80.9489 215.999 79.4552 215.955 77.9638L217.087 78.8347C216.915 76.9951 217.259 75.1439 218.08 73.4872C218.473 72.6968 218.989 71.9108 219 71.0246C219.017 69.6573 217.837 68.5817 216.628 67.9764C215.419 67.3711 214.06 66.9835 213.07 66.0538C211.596 64.6712 211.321 62.4656 210.593 60.5713C210.161 59.5342 209.65 58.5318 209.063 57.5732L207.646 55.1128C206.934 53.8162 206.14 52.5661 205.268 51.37C203.795 49.4343 201.939 47.8384 200.096 46.2598L190.514 38.0361C188.183 36.0351 185.844 34.032 183.324 32.2814C178.211 28.7302 172.443 26.2916 166.712 23.8769C165.269 23.2673 163.767 22.6489 162.206 22.723C161.031 22.7988 159.917 23.2738 159.05 24.0686C158.229 23.8201 157.425 23.516 156.646 23.1584L156.584 23.1301C156.602 23.0017 156.622 22.8754 156.635 22.7469C156.654 22.5771 156.665 22.4073 156.678 22.2352C157.11 22.169 157.528 22.0329 157.916 21.8325C158.112 21.7399 158.286 21.6053 158.425 21.4384C158.601 21.1476 158.691 20.8133 158.685 20.4738C158.86 18.1985 159.035 15.9014 158.847 13.637C158.659 11.3726 158.088 9.07989 156.879 7.15513C156.506 6.55855 156.038 5.9772 155.389 5.7181C154.514 5.36973 153.502 5.69415 152.569 5.53738C150.954 5.26522 149.946 3.69102 148.776 2.53051C145.819 -0.406699 140.761 -0.848696 137.347 1.52894C136.052 2.43253 135.016 3.65836 133.862 4.73831C132.708 5.81826 131.355 6.79588 129.797 7.00707C129.509 7.0192 129.228 7.0935 128.972 7.22481C128.653 7.42512 128.509 7.81051 128.387 8.16759C127.949 9.39995 127.53 10.665 127.396 11.9539C127.381 11.8756 127.368 11.7972 127.355 11.7188C127.295 12.1962 127.283 12.6782 127.318 13.158C127.361 13.7695 127.539 14.364 127.838 14.8999C128.087 15.4093 128.511 15.8126 129.034 16.0364C129.403 16.1667 129.794 16.2294 130.186 16.2215H130.358C130.295 16.3891 130.234 16.5568 130.177 16.7266C129.69 18.1655 129.443 19.674 129.445 21.1923C129.445 28.8129 135.55 34.9878 143.087 34.9878C143.994 34.9834 144.898 34.8886 145.786 34.7048C146.081 34.7984 146.376 34.8942 146.661 34.9965C147.242 35.1881 147.813 35.4119 148.37 35.6671C148.606 35.7782 149.561 36.3334 150.715 37.0497L150.637 37.213C149.511 38.2606 148.685 39.5876 148.243 41.058C147.802 42.5284 147.761 44.0892 148.125 45.5805C148.96 48.8181 151.699 51.5942 151.424 54.9277C151.384 55.4024 151.284 55.8836 151.365 56.3539C151.476 57.0071 151.92 57.5383 152.363 58.0217C152.748 58.4441 153.148 58.8534 153.555 59.254C153.522 61.3813 153.336 63.5064 153.135 65.6271C153.118 65.8121 153.113 65.9994 153.111 66.1888C153.123 67.1057 153.457 67.9894 154.055 68.6862C154.689 69.4548 154.943 70.6066 154.823 71.6343C154.65 73.1062 153.922 74.4409 153.435 75.8365C151.236 82.1137 153.937 89.1922 152.416 95.6741C152.042 97.2701 151.413 98.8225 151.323 100.464C151.273 101.49 151.434 102.565 151.039 103.512C150.696 104.335 149.981 104.93 149.305 105.507C148.351 106.321 147.421 107.163 146.516 108.033C145.149 107.288 143.737 106.626 142.289 106.051C142.053 105.956 141.812 105.874 141.567 105.803C139.858 104.209 137.703 103.19 135.679 102.019C134 101.05 132.4 99.9612 130.791 98.8726C129.261 97.8274 127.698 96.7736 126.404 95.4302C125.748 94.7509 125.165 94.0019 124.459 93.3814C123.838 92.8668 123.181 92.3981 122.491 91.9792C119.39 89.9779 116.433 87.7625 113.643 85.3492C111.516 83.5116 109.776 81.1448 107.503 79.4966C106.11 78.4863 104.491 77.5653 102.786 77.7547C102.243 77.8184 101.716 77.9799 101.232 78.2316C100.78 78.0407 100.297 77.933 99.8063 77.9137C98.4205 77.8701 97.1483 78.6191 95.9592 79.3398C88.9644 83.574 81.8603 87.6195 74.6469 91.4762C73.1911 92.2557 71.7266 93.0286 70.3364 93.9213C67.6238 95.669 65.2204 97.8519 63.2236 100.381C62.8563 100.845 62.3929 101.372 61.8093 101.302C61.6495 101.278 61.4959 101.223 61.3568 101.141C60.4584 100.656 59.9076 99.7174 59.3895 98.8268C59.0136 98.1736 58.607 97.4921 58.0562 96.9957C57.9382 96.6867 57.781 96.394 57.5884 96.1248C58.3644 94.2175 59.0332 92.2644 59.654 90.2983C59.9775 89.2662 60.2901 88.2276 60.7032 87.2261C61.7219 84.7483 63.346 82.5035 63.9209 79.882C64.0586 79.2484 64.1394 78.5974 64.2465 77.9572C70.5309 76.7249 75.2743 71.1335 75.2743 64.4186C75.2743 56.798 69.1669 50.6231 61.6322 50.6231C54.0975 50.6231 47.9924 56.798 47.9924 64.4186C47.9856 66.7382 48.5647 69.0222 49.6762 71.0604C50.7878 73.0986 52.3961 74.8257 54.3533 76.0826C54.3533 76.1087 54.3533 76.1348 54.3533 76.1588C54.3402 76.5966 54.2971 77.0331 54.2243 77.4651C53.9729 78.924 53.35 80.2957 52.7226 81.626C52.3073 82.5165 51.892 83.4114 51.4614 84.2998C51.2547 84.2584 51.0542 84.1911 50.8646 84.0994C50.4952 83.8948 50.3335 83.4463 50.1936 83.05C49.5745 81.2342 48.8167 79.4683 47.9268 77.7678C47.5797 77.045 47.1388 76.3708 46.6153 75.7625C45.6928 74.7566 44.4294 74.16 43.2075 73.5569C42.9889 73.4524 42.7856 73.3391 42.5758 73.239C42.3943 73.1046 42.2045 72.9817 42.0075 72.871C40.991 72.2984 39.8631 71.8869 39.015 71.0856C38.3789 70.4847 37.9417 69.703 37.3472 69.065C36.357 68.0047 34.9908 67.3994 33.664 66.8224C32.9733 66.5219 32.2475 66.2149 31.4934 66.2563C31.3872 66.2615 31.2813 66.2731 31.1765 66.2911C30.9951 66.322 30.8156 66.3627 30.6387 66.4131C30.4666 66.322 30.304 66.2141 30.1535 66.0908C29.3425 65.4681 29.0278 64.3991 28.7633 63.404C28.3261 61.7405 27.8649 60.0183 28.1359 58.3156C28.1831 58.0219 28.2473 57.7311 28.3283 57.4447C28.396 57.3337 28.4616 57.227 28.5206 57.1072C30.2609 56.5862 31.851 55.6584 33.1584 54.4013C34.4658 53.1441 35.4526 51.5939 36.0367 49.8798C36.6208 48.1658 36.7852 46.3375 36.5162 44.5474C36.2472 42.7573 35.5526 41.0571 34.4902 39.5885C34.3788 39.4361 34.2717 39.288 34.1471 39.14L34.2782 39.0681C35.487 38.3322 35.7624 36.5729 35.2028 35.2622C34.6433 33.9514 33.4541 33.026 32.2497 32.2988C32.0749 32.1921 31.8978 32.092 31.7186 31.9918L31.5656 31.9091C31.43 31.8351 31.2967 31.7632 31.1612 31.6914L31.0016 31.6108C30.842 31.5302 30.6825 31.454 30.5229 31.38L30.4508 31.3452C30.2518 31.2559 30.0529 31.1688 29.8518 31.0861C29.6573 31.0055 29.4627 30.9315 29.266 30.8683L29.1851 30.8378C28.9993 30.7703 28.8113 30.7072 28.6234 30.6462L28.5818 30.6332C27.2069 30.188 25.7736 29.9474 24.3281 29.919C22.9131 29.9274 21.5029 30.0829 20.1203 30.3828C18.7742 30.6256 17.456 31.0027 16.1857 31.5085C14.0863 32.3947 12.2354 33.7773 10.7932 35.5365C10.4892 35.5595 10.1879 35.609 9.89261 35.6846C8.71006 35.9829 7.64554 36.6404 6.67282 37.385C5.8581 37.9816 5.13627 38.6948 4.53067 39.5014C3.81744 40.535 3.32559 41.7038 3.08581 42.935C2.25736 46.7954 3.27598 50.7734 4.02573 54.6534C4.77549 58.5334 5.20829 62.7617 3.36997 66.2432C2.67705 67.5496 1.6934 68.684 0.965509 69.9665C0.237613 71.2489 -0.267324 72.797 0.152364 74.2188C0.661672 75.9454 2.33824 77.0319 3.21259 78.5995C4.23558 80.4263 3.9536 82.8801 2.61584 84.4783C2.55682 84.548 2.49781 84.6177 2.43442 84.696C2.37103 84.7744 2.2814 84.8572 2.19834 84.9312C3.57763 85.4146 5.1143 84.8942 6.3515 84.119C7.34093 83.5368 8.18004 82.7323 8.80186 81.7697C10.3648 79.2135 9.6631 75.9084 10.2139 72.9537C10.9375 69.0846 13.8578 65.6336 13.4556 61.7166C13.1845 59.0886 11.4621 56.8917 10.109 54.6316C9.20961 53.1147 8.45579 51.5168 7.85757 49.8589C7.83352 49.7892 7.80948 49.7174 7.78325 49.6412C7.38761 48.5199 7.08377 47.331 7.28705 46.1575C7.35638 45.7773 7.47085 45.4068 7.62805 45.0536C7.62805 45.0949 7.62805 45.1385 7.62805 45.1798C7.65464 46.3149 7.90804 47.4333 8.37343 48.4698C9.7396 51.3003 13.0272 52.6067 15.1147 54.9016C15.2021 54.9974 15.2852 55.0954 15.3682 55.1955C15.3923 55.2216 15.4141 55.25 15.436 55.2783L15.613 55.496L15.6874 55.5983C15.742 55.6745 15.7967 55.7507 15.8469 55.8291L15.9147 55.9271C15.9846 56.0381 16.0546 56.1448 16.1202 56.2646C16.6513 55.6789 17.2 55.0627 17.4142 54.305C17.4339 54.2397 17.447 54.1722 17.4601 54.1047C17.4776 54.1221 17.4929 54.1417 17.5104 54.1613C17.5519 54.3943 17.5847 54.6272 17.6153 54.8624C17.6153 55.1984 17.6512 55.5334 17.7224 55.8618C17.8885 57.952 17.7552 60.0988 17.6153 62.1956C17.541 63.3169 17.8339 64.9826 17.1169 65.8187L17.0951 65.8426C17.053 65.8914 17.007 65.9365 16.9574 65.9776C16.8349 66.1039 16.7104 66.228 16.5945 66.3586C14.19 69.0585 13.0971 72.8906 13.1539 76.5616C13.2108 80.7398 14.5507 84.7875 16.0699 88.674C16.6005 90.0929 17.2255 91.475 17.941 92.8109C18.3103 93.5322 18.7987 94.1865 19.3859 94.7465C20.0001 95.2887 20.7477 95.6458 21.4843 95.9941C21.6679 96.0812 21.8537 96.1661 22.0373 96.2554L22.5073 96.4732L26.0856 98.1671C26.7413 99.1273 27.3752 100.114 28.0157 101.102C28.1075 101.241 28.1971 101.385 28.2911 101.525C28.9906 102.613 29.6944 103.702 30.4114 104.76L36.4422 113.657C36.8794 114.31 37.3363 114.963 37.9505 115.446C38.1252 115.583 38.3143 115.701 38.5144 115.797C38.6161 115.846 38.7204 115.889 38.827 115.925C38.6946 116.123 38.638 116.362 38.6674 116.598C38.7481 116.829 38.9014 117.029 39.1046 117.166C40.4686 118.29 41.9834 119.474 42.4118 121.201C42.7157 122.431 42.4118 123.748 42.6851 124.985C43.1856 127.215 45.3999 128.567 47.494 129.425C52.1871 131.345 57.4004 132.083 62.3864 131.191C67.3723 130.298 72.1091 127.722 75.3377 123.788C76.3301 122.573 77.176 121.247 78.1181 119.993C78.7739 119.109 79.4952 118.266 80.2406 117.454C81.0449 117.087 81.8202 116.661 82.5598 116.178C84.1358 115.135 85.4932 113.796 86.9315 112.555C88.0048 111.623 89.1283 110.743 90.1142 109.724C90.9993 108.758 91.8263 107.74 92.5908 106.676C94.3395 104.368 96.1457 102.106 98.0095 99.8894C99.0063 98.7027 100.062 97.4943 101.454 96.8411L101.518 96.815C101.684 97.7904 102.46 98.6178 103.004 99.4604C105.256 102.944 107.612 106.53 111.092 108.751C112.998 109.966 115.153 110.711 117.304 111.39C122.769 113.11 128.321 114.46 133.878 115.812C134.061 115.464 134.24 115.142 134.441 114.828C134.528 114.919 134.608 115.015 134.682 115.115C134.706 115.15 134.726 115.187 134.75 115.222C134.71 115.23 134.67 115.241 134.632 115.255C134.275 115.42 133.994 115.714 133.847 116.078C133.248 117.273 133.191 118.66 133.163 119.997C133.143 121.303 133.163 122.61 133.163 123.916C133.131 124.404 133.205 124.893 133.381 125.349C133.805 126.22 134.883 126.544 135.847 126.655C137.521 126.84 139.209 126.683 140.875 126.459C140.971 126.851 141.128 127.225 141.34 127.567C142.276 129.092 143.891 130.098 145.572 130.688C147.253 131.278 149.034 131.513 150.781 131.859C153.883 132.473 157.057 133.455 160.141 132.763C161.371 132.486 162.545 131.95 163.776 131.715C166.594 131.184 169.514 132.26 172.351 131.828C173.722 131.611 175.018 131.066 176.259 130.442C176.885 130.168 177.453 129.778 177.932 129.292C178.386 128.782 178.66 128.06 178.472 127.4C178.364 127.021 178.12 126.699 177.956 126.342C177.736 125.77 177.611 125.167 177.586 124.556C177.358 122.244 176.965 119.95 176.41 117.693C176.395 117.63 176.377 117.565 176.36 117.5C178.504 116.653 180.426 115.322 182.323 113.998L186.404 111.155C187.716 110.234 189.06 109.308 190.533 108.664C192.793 107.675 195.296 107.392 197.76 107.395C198.767 107.395 199.777 107.445 200.781 107.536C200.653 107.675 200.556 107.84 200.499 108.019C200.297 108.642 200.617 109.326 201.091 109.781C201.565 110.236 202.184 110.493 202.741 110.809C204.281 111.672 205.564 112.928 206.457 114.447C207.017 115.403 207.423 116.563 207.069 117.615C206.632 118.934 205.074 119.845 205.163 121.234C205.216 122.052 205.878 122.729 206.632 123.032C207.386 123.335 208.223 123.33 209.037 123.306C210.368 123.265 211.738 123.163 212.93 122.56C213.732 122.152 214.412 121.538 215.078 120.931C215.686 120.376 216.307 119.799 216.652 119.05C216.976 118.344 217.026 117.545 217.041 116.77C217.107 113.121 216.475 109.422 217.203 105.847C217.422 104.758 217.771 103.693 217.957 102.596C218.25 100.854 218.139 99.0946 218.027 97.3441C217.972 96.4819 217.907 95.5935 217.483 94.8467Z" fill="url(#paint0_linear_121_2)"/>
<path opacity="0.06" d="M171 44.0378C170.137 44.6201 169.836 45.7451 169.726 46.7822C169.258 51.1921 171.077 55.5581 170.956 59.9899C170.859 63.5165 169.546 66.8805 168.25 70.161C166.04 75.7574 164.889 81.835 164.443 87.8357C163.997 93.8365 163.344 100.085 160.124 105.161C159.392 106.31 158.54 107.378 157.824 108.534C157.072 109.742 156.477 111.039 155.814 112.296C153.859 116.008 151.339 119.393 148.345 122.33C147.466 123.187 146.535 124.018 145.414 124.512C144.692 124.826 143.915 124.991 143.128 125C142.341 125.008 141.56 124.859 140.832 124.561C139.329 123.939 138.064 122.537 138.002 120.911C137.948 119.456 138.815 118.145 139.685 116.98C142.634 113.035 146.024 109.44 149.79 106.266C150.473 105.691 151.194 105.095 151.548 104.273C151.945 103.326 151.783 102.252 151.833 101.226C151.914 99.5889 152.552 98.0354 152.932 96.4402C154.469 89.9605 151.737 82.8853 153.96 76.6078C154.454 75.2125 155.188 73.8788 155.361 72.4088C155.484 71.3805 155.229 70.2313 154.586 69.4601C153.983 68.7671 153.646 67.8825 153.635 66.964C153.635 66.775 153.635 66.5883 153.657 66.4037C153.925 63.5275 154.19 60.6381 154.045 57.7531C153.9 54.8681 153.327 51.9677 151.996 49.4035C151.306 48.0742 150.414 46.8305 149.988 45.3957C149.303 43.0732 149.935 40.5618 150.957 38.3645C151.754 36.6463 152.817 35.0093 154.302 33.8316C157.061 31.6453 161.191 31.3926 164.212 33.201C166.439 34.5325 167.964 36.7715 169.201 39.0545C170.088 40.7222 171.013 42.135 171 44.0378Z" fill="black"/>
<path d="M163.96 26.8995C163.548 28.0196 163.137 29.1398 162.729 30.26C162.459 30.9952 162.19 31.7369 161.911 32.4722C160.622 35.8608 159.18 39.1953 156.925 42C157.262 41.5805 154.089 39.4699 151.75 38.0297C150.609 37.3226 149.664 36.7776 149.432 36.6695C148.881 36.4187 148.316 36.1978 147.741 36.0078C146.85 35.7051 145.948 35.4434 145.056 35.1169C142.994 34.3665 144.435 33.2398 145.318 32.0289C148.208 28.0629 148.755 22.6438 152.036 19C153.239 21.3009 155.142 23.1537 157.466 24.2872C157.511 24.311 157.559 24.3326 157.606 24.3521C159.554 25.269 161.707 25.6647 163.722 26.4324C163.831 26.4735 163.958 26.5319 163.995 26.6486C164.008 26.7338 163.996 26.8212 163.96 26.8995Z" fill="#A1616A"/>
<path d="M157.778 108.065C156.827 109.407 156.235 110.965 156.057 112.592C155.879 114.22 156.121 115.866 156.76 117.378C156.921 117.8 157.173 118.183 157.498 118.501C157.911 118.82 158.393 119.041 158.906 119.149C163.254 120.368 167.896 120.128 172.35 119.364C173.859 119.136 175.341 118.764 176.777 118.253C178.982 117.423 180.951 116.096 182.895 114.772L187.007 111.98C188.339 111.076 189.681 110.168 191.168 109.534C193.445 108.565 195.967 108.287 198.448 108.289C200.579 108.292 202.705 108.492 204.798 108.887C206.193 109.152 207.864 109.426 208.845 108.423C209.405 107.855 209.572 107.025 209.681 106.242C210.114 103.195 210.106 100.103 209.657 97.0583C209.646 96.8022 209.552 96.5563 209.388 96.3572C209.233 96.228 209.045 96.1436 208.845 96.1134C206.907 95.682 204.962 96.5772 203.079 97.1921C199.166 98.4735 194.965 98.6266 190.984 99.6815C186.806 100.788 182.882 102.883 178.564 103.308C176.506 103.511 174.439 103.334 172.376 103.379C170.463 103.42 168.678 104.072 166.804 104.149C163.191 104.307 160.049 104.928 157.778 108.065Z" fill="#A1616A"/>
<path opacity="0.06" d="M157.778 108.065C156.827 109.407 156.235 110.965 156.057 112.592C155.879 114.22 156.121 115.866 156.76 117.378C156.921 117.8 157.173 118.183 157.498 118.501C157.911 118.82 158.393 119.041 158.906 119.149C163.254 120.368 167.896 120.128 172.35 119.364C173.859 119.136 175.341 118.764 176.777 118.253C178.982 117.423 180.951 116.096 182.895 114.772L187.007 111.98C188.339 111.076 189.681 110.168 191.168 109.534C193.445 108.565 195.967 108.287 198.448 108.289C200.579 108.292 202.705 108.492 204.798 108.887C206.193 109.152 207.864 109.426 208.845 108.423C209.405 107.855 209.572 107.025 209.681 106.242C210.114 103.195 210.106 100.103 209.657 97.0583C209.646 96.8022 209.552 96.5563 209.388 96.3572C209.233 96.228 209.045 96.1436 208.845 96.1134C206.907 95.682 204.962 96.5772 203.079 97.1921C199.166 98.4735 194.965 98.6266 190.984 99.6815C186.806 100.788 182.882 102.883 178.564 103.308C176.506 103.511 174.439 103.334 172.376 103.379C170.463 103.42 168.678 104.072 166.804 104.149C163.191 104.307 160.049 104.928 157.778 108.065Z" fill="black"/>
<path d="M162.123 102.779C162.022 103.252 161.931 103.753 162.074 104.215C162.25 104.669 162.549 105.067 162.937 105.366C166.607 108.622 171.851 109.296 176.754 109.824C178.081 109.967 179.433 110.111 180.747 109.873C181.946 109.659 183.064 109.135 184.167 108.618C186.542 107.503 188.929 106.376 190.965 104.737C192.962 103.132 194.564 101.079 196.632 99.5663C198.983 97.8548 201.874 96.875 203.972 94.8598C205.489 93.4094 206.498 91.5156 206.85 89.456C207.087 88.0505 207.009 86.615 206.85 85.1988C206.679 83.5708 206.405 81.915 205.623 80.4732C204.719 78.8045 203.199 77.5445 201.595 76.5091C198.201 74.3227 194.205 72.9664 190.153 73.0006C184.54 73.0498 179.359 76.2866 175.331 79.9212C171.07 83.7708 167.621 88.4192 165.185 93.5977C163.809 96.5305 162.781 99.6117 162.123 102.779Z" fill="#254C63"/>
<path opacity="0.06" d="M162.123 102.779C162.022 103.252 161.931 103.753 162.074 104.215C162.25 104.669 162.549 105.067 162.937 105.366C166.607 108.622 171.851 109.296 176.754 109.824C178.081 109.967 179.433 110.111 180.747 109.873C181.946 109.659 183.064 109.135 184.167 108.618C186.542 107.503 188.929 106.376 190.965 104.737C192.962 103.132 194.564 101.079 196.632 99.5663C198.983 97.8548 201.874 96.875 203.972 94.8598C205.489 93.4094 206.498 91.5156 206.85 89.456C207.087 88.0505 207.009 86.615 206.85 85.1988C206.679 83.5708 206.405 81.915 205.623 80.4732C204.719 78.8045 203.199 77.5445 201.595 76.5091C198.201 74.3227 194.205 72.9664 190.153 73.0006C184.54 73.0498 179.359 76.2866 175.331 79.9212C171.07 83.7708 167.621 88.4192 165.185 93.5977C163.809 96.5305 162.781 99.6117 162.123 102.779Z" fill="#254C63"/>
<path d="M171 44.0378C170.137 44.6201 169.836 45.7451 169.726 46.7822C169.258 51.1921 171.077 55.5581 170.956 59.9899C170.859 63.5165 169.546 66.8805 168.25 70.161C166.04 75.7574 164.889 81.835 164.443 87.8357C163.997 93.8365 163.344 100.085 160.124 105.161C159.392 106.31 158.54 107.378 157.824 108.534C157.072 109.742 156.477 111.039 155.814 112.296C153.859 116.008 151.339 119.393 148.345 122.33C147.466 123.187 146.535 124.018 145.414 124.512C144.692 124.826 143.915 124.991 143.128 125C142.341 125.008 141.56 124.859 140.832 124.561C139.329 123.939 138.064 122.537 138.002 120.911C137.948 119.456 138.815 118.145 139.685 116.98C142.634 113.035 146.024 109.44 149.79 106.266C150.473 105.691 151.194 105.095 151.548 104.273C151.945 103.326 151.783 102.252 151.833 101.226C151.914 99.5889 152.552 98.0354 152.932 96.4402C154.469 89.9605 151.737 82.8853 153.96 76.6078C154.454 75.2125 155.188 73.8788 155.361 72.4088C155.484 71.3805 155.229 70.2313 154.586 69.4601C153.983 68.7671 153.646 67.8825 153.635 66.964C153.635 66.775 153.635 66.5883 153.657 66.4037C153.925 63.5275 154.19 60.6381 154.045 57.7531C153.9 54.8681 153.327 51.9677 151.996 49.4035C151.306 48.0742 150.414 46.8305 149.988 45.3957C149.303 43.0732 149.935 40.5618 150.957 38.3645C151.754 36.6463 152.817 35.0093 154.302 33.8316C157.061 31.6453 161.191 31.3926 164.212 33.201C166.439 34.5325 167.964 36.7715 169.201 39.0545C170.088 40.7222 171.013 42.135 171 44.0378Z" fill="#A1616A"/>
<path d="M159 59C163.418 59 167 53.1797 167 46C167 38.8203 163.418 33 159 33C154.582 33 151 38.8203 151 46C151 53.1797 154.582 59 159 59Z" fill="#A1616A"/>
<path d="M137.85 113.696C138.095 114.052 138.261 114.46 138.337 114.89C138.413 115.319 138.396 115.761 138.288 116.184C139.071 116.763 140.022 117.049 140.983 116.993C141.938 116.94 142.876 116.717 143.757 116.335C144.524 116.047 145.25 115.654 145.915 115.168C147.06 114.295 147.889 113.047 148.547 111.753C148.917 111.039 149.233 110.114 148.766 109.471C148.582 109.254 148.359 109.075 148.108 108.947C146.419 107.953 144.659 107.09 142.845 106.366C142.347 106.13 141.806 106.005 141.258 106C140.584 106.038 139.973 106.418 139.437 106.844C138.235 107.808 137.265 109.046 136.604 110.462C136.398 110.914 135.775 111.988 136.085 112.454C136.225 112.669 136.742 112.744 136.962 112.88C137.31 113.084 137.613 113.362 137.85 113.696Z" fill="#FBBEBE"/>
<path opacity="0.03" d="M137.85 113.696C138.095 114.052 138.261 114.46 138.337 114.89C138.413 115.319 138.396 115.761 138.288 116.184C139.071 116.763 140.022 117.049 140.983 116.993C141.938 116.94 142.876 116.717 143.757 116.335C144.524 116.047 145.25 115.654 145.915 115.168C147.06 114.295 147.889 113.047 148.547 111.753C148.917 111.039 149.233 110.114 148.766 109.471C148.582 109.254 148.359 109.075 148.108 108.947C146.419 107.953 144.659 107.09 142.845 106.366C142.347 106.13 141.806 106.005 141.258 106C140.584 106.038 139.973 106.418 139.437 106.844C138.235 107.808 137.265 109.046 136.604 110.462C136.398 110.914 135.775 111.988 136.085 112.454C136.225 112.669 136.742 112.744 136.962 112.88C137.31 113.084 137.613 113.362 137.85 113.696Z" fill="black"/>
<path d="M146.679 109.004C150.421 109.66 153.862 111.37 157.539 112.291C159.027 112.663 160.56 112.918 161.982 113.466C163.403 114.014 164.743 114.95 165.356 116.283C165.615 116.924 165.787 117.592 165.867 118.273C166.026 119.237 166.156 120.313 165.551 121.103C164.912 121.939 163.704 122.123 162.623 122.247C158.735 122.683 154.848 123.122 150.947 123.432C150.157 123.477 149.371 123.566 148.592 123.697C147.951 123.818 147.325 124.002 146.688 124.144C145.864 124.326 145.025 124.441 144.19 124.562C142.051 124.853 139.889 125.143 137.741 124.922C136.762 124.819 135.665 124.521 135.234 123.685C135.055 123.251 134.979 122.786 135.013 122.322C135.002 121.08 134.991 119.841 135.013 118.601C135.033 117.329 135.099 116.008 135.709 114.873C135.861 114.525 136.146 114.245 136.508 114.089C136.73 114.029 136.963 114.009 137.193 114.03C138.343 114.068 139.533 114.114 140.561 114.599C141.377 114.981 142.04 115.619 142.872 115.966C144.446 116.626 146.346 116.152 147.94 116.773C148.311 115.69 148.227 114.595 147.951 113.485C147.675 112.375 147.288 111.286 147.17 110.153C147.166 109.904 147.115 109.658 147.02 109.426C146.901 109.194 146.94 108.968 146.679 109.004Z" fill="#464353"/>
<path opacity="0.06" d="M146.679 109.004C150.421 109.66 153.862 111.37 157.539 112.291C159.027 112.663 160.56 112.918 161.982 113.466C163.403 114.014 164.743 114.95 165.356 116.283C165.615 116.924 165.787 117.592 165.867 118.273C166.026 119.237 166.156 120.313 165.551 121.103C164.912 121.939 163.704 122.123 162.623 122.247C158.735 122.683 154.848 123.122 150.947 123.432C150.157 123.477 149.371 123.566 148.592 123.697C147.951 123.818 147.325 124.002 146.688 124.144C145.864 124.326 145.025 124.441 144.19 124.562C142.051 124.853 139.889 125.143 137.741 124.922C136.762 124.819 135.665 124.521 135.234 123.685C135.055 123.251 134.979 122.786 135.013 122.322C135.002 121.08 134.991 119.841 135.013 118.601C135.033 117.329 135.099 116.008 135.709 114.873C135.861 114.525 136.146 114.245 136.508 114.089C136.73 114.029 136.963 114.009 137.193 114.03C138.343 114.068 139.533 114.114 140.561 114.599C141.377 114.981 142.04 115.619 142.872 115.966C144.446 116.626 146.346 116.152 147.94 116.773C148.311 115.69 148.227 114.595 147.951 113.485C147.675 112.375 147.288 111.286 147.17 110.153C147.166 109.904 147.115 109.658 147.02 109.426C146.901 109.194 146.94 108.968 146.679 109.004Z" fill="black"/>
<path d="M23.1744 71.4036C22.4247 71.1696 21.7014 71.824 21.2815 72.4871C19.536 75.1914 19.6789 78.8015 21.0749 81.6965C21.407 82.4307 21.8651 83.1029 22.4291 83.6836C23.1854 84.4181 24.1593 84.8884 25.0672 85.4171C27.5865 86.8841 29.7456 88.8821 31.3899 91.2678C32.4649 92.8302 33.3113 94.5485 34.5314 96.0025C37.5344 99.5823 42.4699 101.203 45.3828 104.844C46.0797 105.71 46.6689 106.716 47.5988 107.346C48.1516 107.721 48.7959 107.943 49.465 107.991C50.1342 108.038 50.8039 107.908 51.4052 107.615C52.0064 107.321 52.5173 106.875 52.8851 106.322C53.2528 105.769 53.4641 105.129 53.4972 104.469C54.6294 102.828 55.5549 101.017 56.4365 99.2313C57.7408 96.5059 58.8429 93.6909 59.7341 90.8084C60.0616 89.79 60.3782 88.765 60.7959 87.7747C61.827 85.3304 63.4692 83.118 64.0496 80.535C64.2826 79.4992 64.3398 78.4223 64.6783 77.4168C64.9815 76.5143 65.5003 75.6969 66.1908 75.0332C68.4772 72.8424 69.7083 69.6505 71.5264 67.0719C72.2651 66.0296 73.0323 64.9895 73.5204 63.8107C74.0084 62.6319 74.1953 61.2819 73.7402 60.0901C73.2851 58.8983 72.0958 57.9361 70.8075 58.0033C70.231 58.0623 69.6716 58.2316 69.1609 58.5017C67.3855 59.3322 65.7569 60.4384 64.3376 61.7781C63.7169 62.3668 63.1298 62.989 62.5788 63.6417C59.8924 66.8054 57.7907 70.6452 57.606 74.7667C57.5445 76.1795 57.6588 77.7462 56.7486 78.8405C54.238 81.8633 53.4312 86.0195 51.29 89.3089C50.2985 90.8257 49.1619 92.3968 47.4669 93.088C47.2166 93.2067 46.9396 93.2604 46.6623 93.244C45.9852 93.1682 45.596 92.4661 45.3102 91.855C44.1934 89.4717 42.9009 87.1722 41.4432 84.975C40.8672 84.1083 40.2319 83.2198 39.3108 82.7106C38.682 82.3661 37.9521 82.2122 37.3608 81.8092C36.5364 81.2479 36.1055 80.2923 35.6768 79.3974C34.2874 76.507 32.5283 73.8038 30.4423 71.3538C29.4882 70.2335 28.2307 69.0763 26.7578 69.2432C25.3552 69.4057 24.4978 70.8597 23.1744 71.4036Z" fill="#FBBEBE"/>
<path opacity="0.03" d="M23.1744 71.4036C22.4247 71.1696 21.7014 71.824 21.2815 72.4871C19.536 75.1914 19.6789 78.8015 21.0749 81.6965C21.407 82.4307 21.8651 83.1029 22.4291 83.6836C23.1854 84.4181 24.1593 84.8884 25.0672 85.4171C27.5865 86.8841 29.7456 88.8821 31.3899 91.2678C32.4649 92.8302 33.3113 94.5485 34.5314 96.0025C37.5344 99.5823 42.4699 101.203 45.3828 104.844C46.0797 105.71 46.6689 106.716 47.5988 107.346C48.1516 107.721 48.7959 107.943 49.465 107.991C50.1342 108.038 50.8039 107.908 51.4052 107.615C52.0064 107.321 52.5173 106.875 52.8851 106.322C53.2528 105.769 53.4641 105.129 53.4972 104.469C54.6294 102.828 55.5549 101.017 56.4365 99.2313C57.7408 96.5059 58.8429 93.6909 59.7341 90.8084C60.0616 89.79 60.3782 88.765 60.7959 87.7747C61.827 85.3304 63.4692 83.118 64.0496 80.535C64.2826 79.4992 64.3398 78.4223 64.6783 77.4168C64.9815 76.5143 65.5003 75.6969 66.1908 75.0332C68.4772 72.8424 69.7083 69.6505 71.5264 67.0719C72.2651 66.0296 73.0323 64.9895 73.5204 63.8107C74.0084 62.6319 74.1953 61.2819 73.7402 60.0901C73.2851 58.8983 72.0958 57.9361 70.8075 58.0033C70.231 58.0623 69.6716 58.2316 69.1609 58.5017C67.3855 59.3322 65.7569 60.4384 64.3376 61.7781C63.7169 62.3668 63.1298 62.989 62.5788 63.6417C59.8924 66.8054 57.7907 70.6452 57.606 74.7667C57.5445 76.1795 57.6588 77.7462 56.7486 78.8405C54.238 81.8633 53.4312 86.0195 51.29 89.3089C50.2985 90.8257 49.1619 92.3968 47.4669 93.088C47.2166 93.2067 46.9396 93.2604 46.6623 93.244C45.9852 93.1682 45.596 92.4661 45.3102 91.855C44.1934 89.4717 42.9009 87.1722 41.4432 84.975C40.8672 84.1083 40.2319 83.2198 39.3108 82.7106C38.682 82.3661 37.9521 82.2122 37.3608 81.8092C36.5364 81.2479 36.1055 80.2923 35.6768 79.3974C34.2874 76.507 32.5283 73.8038 30.4423 71.3538C29.4882 70.2335 28.2307 69.0763 26.7578 69.2432C25.3552 69.4057 24.4978 70.8597 23.1744 71.4036Z" fill="black"/>
<path d="M23 61C26.3137 61 29 58.5376 29 55.5C29 52.4624 26.3137 50 23 50C19.6863 50 17 52.4624 17 55.5C17 58.5376 19.6863 61 23 61Z" fill="#FBBEBE"/>
<path d="M29 57C30.1046 57 31 55.8807 31 54.5C31 53.1193 30.1046 52 29 52C27.8954 52 27 53.1193 27 54.5C27 55.8807 27.8954 57 29 57Z" fill="#FBBEBE"/>
<path d="M24 56C28.4183 56 32 55.1046 32 54C32 52.8954 28.4183 52 24 52C19.5817 52 16 52.8954 16 54C16 55.1046 19.5817 56 24 56Z" fill="#FBBEBE"/>
<path d="M17.7029 53.1733C17.8921 53.7838 18.0409 54.4065 18.1484 55.0373C17.4954 54.3625 16.9297 53.6058 16.465 52.7853C16.3397 52.6438 16.239 52.4816 16.1673 52.3056C15.4733 50.6619 15 48.9985 15 47.1977C14.9998 45.1098 15.5732 43.0635 16.6553 41.2898C17.7375 39.5161 19.2853 38.0857 21.124 37.1602C22.9626 36.2347 25.0189 35.8509 27.0605 36.0522C29.1021 36.2535 31.0478 37.0318 32.6778 38.2993C34.3078 39.5668 35.5571 41.273 36.2847 43.2251C37.0123 45.1773 37.1892 47.2976 36.7953 49.3466C36.4015 51.3957 35.4527 53.2919 34.056 54.821C32.6593 56.3501 30.8704 57.4512 28.8914 58C29.2276 56.8969 29.6881 55.8199 29.748 54.6754C29.7842 54.2936 29.7298 53.9086 29.5896 53.5527C29.4016 53.174 29.1241 52.8489 28.7821 52.6065C27.557 51.6538 25.9807 51.2374 24.4387 51.2636C22.8948 51.3288 21.3782 51.6991 19.9731 52.3536C19.5298 52.5476 18.9986 52.8092 18.4739 52.988C18.2237 53.0762 17.9654 53.1383 17.7029 53.1733Z" fill="#FBBEBE"/>
<path d="M45.7661 77.5886C45.0422 78.7351 43.4951 79.0854 42.1352 78.9831C39.6001 78.7982 37.2939 77.4603 35.3353 75.8504C33.3768 74.2405 31.6648 72.3695 29.6622 70.8205C25.9366 67.9336 21.7401 66.774 17 66.7066C17.9264 65.9473 17.5854 64.146 17.6602 62.9625C17.823 60.5694 17.9771 58.1132 17.6602 55.7549C17.6272 55.5004 17.5898 55.2502 17.5457 55C17.6206 55.0783 17.6998 55.1545 17.7812 55.2328C19.1908 56.5701 20.9266 57.5239 22.8197 58.0012C24.7128 58.4785 26.6986 58.4631 28.5839 57.9566C28.4627 58.3355 28.3678 58.7222 28.3 59.1139C28.0272 60.7956 28.4849 62.5013 28.936 64.1481C29.2045 65.1337 29.5236 66.191 30.3444 66.8066C30.8769 67.2069 31.5481 67.3636 32.1797 67.5746C33.4386 67.9988 34.6007 68.6642 35.5994 69.5326C36.2948 70.1352 36.9198 70.8379 37.6658 71.3622C38.3752 71.8059 39.1226 72.1874 39.8994 72.5022C41.8058 73.372 43.6069 74.4513 45.2688 75.7198C45.5825 75.9133 45.8265 76.1995 45.9664 76.5378C46.0075 76.7172 46.0109 76.903 45.9765 77.0838C45.942 77.2645 45.8705 77.4363 45.7661 77.5886Z" fill="#FBBEBE"/>
<path d="M57.975 98.6508C57.8253 99.6275 56.9183 100.39 56.2781 101.148C54.5379 103.221 52.7737 105.301 50.8273 107.198C48.7442 109.227 46.4572 111.034 44.1723 112.842L41.2082 115.183C40.8425 115.513 40.414 115.768 39.9475 115.932C39.401 116.067 38.8236 115.999 38.3244 115.742C38.1256 115.648 37.9372 115.534 37.7624 115.401C37.1483 114.93 36.697 114.288 36.2565 113.656C34.2515 110.767 32.2443 107.878 30.235 104.988C29.5189 103.956 28.8159 102.896 28.1172 101.836C28.0239 101.699 27.9349 101.559 27.8416 101.422C27.2037 100.458 26.5679 99.4947 25.9147 98.563L22.3431 96.9118L21.8744 96.6976L21.3211 96.4427C20.5855 96.1022 19.839 95.7552 19.2271 95.2284C18.6412 94.6847 18.1532 94.0467 17.7841 93.3415C17.0694 92.0373 16.4445 90.6871 15.9137 89.3001C14.3947 85.5156 13.0581 81.5706 13.0017 77.497C12.9518 73.9139 14.0237 70.1873 16.4366 67.5573C16.7664 67.1954 17.121 66.8562 17.4977 66.5421C17.9621 66.1587 18.4416 65.9338 19.0383 66.0174C19.635 66.1009 20.2014 66.1866 20.7742 66.2829C22.3539 66.5514 23.9213 66.8798 25.4764 67.2681C26.8782 67.6215 28.3298 68.0242 29.7468 67.7436C29.9746 67.6986 30.2003 67.6344 30.426 67.5765C30.6104 67.5294 30.7927 67.4844 30.9814 67.4545C31.0862 67.4366 31.192 67.4251 31.2983 67.4202C32.0512 67.3816 32.7738 67.6793 33.4682 67.9728C34.794 68.5339 36.1588 69.125 37.157 70.1573C37.7515 70.7784 38.1877 71.5409 38.8213 72.1256C39.6676 72.9073 40.7959 73.3078 41.8114 73.8668C42.0076 73.9742 42.1967 74.0936 42.3778 74.2244C42.7783 74.5207 43.1424 74.8622 43.4627 75.2418C44.7777 76.7731 45.5588 78.8399 47.0105 80.3626C48.1722 81.5791 49.182 82.9288 50.018 84.3827C50.1547 84.6247 50.287 84.8688 50.4172 85.1173C50.6342 85.5306 50.836 85.9504 51.0226 86.3745C51.0704 86.4837 51.1181 86.5886 51.1615 86.7021C51.4346 87.3439 51.6729 87.9994 51.8754 88.6661C52.368 90.2831 52.6956 92.0286 53.7893 93.3265C54.5531 94.2282 55.612 94.8257 56.5038 95.6032C57.0781 96.0834 57.5301 96.6901 57.8231 97.3744C57.9841 97.7799 58.0365 98.2195 57.975 98.6508Z" fill="#FBBEBE"/>
<path opacity="0.06" d="M52 85.6557C51.7546 85.9712 51.5028 86.2824 51.2446 86.5893C51.2018 86.646 51.1547 86.7005 51.1076 86.7551C48.855 89.441 46.2762 91.8239 43.4335 93.8464C41.6744 95.0984 39.819 96.2087 37.9679 97.3168L34.5439 99.3606C33.1122 100.218 31.6613 101.082 30.0734 101.575C29.564 101.73 29.0312 101.854 28.5112 102C28.4191 101.86 28.3314 101.719 28.2394 101.579C27.6102 100.597 26.9832 99.6159 26.339 98.667L22.8166 96.9852C24.7619 95.7319 26.4877 94.1556 27.9227 92.3217C30.0627 89.6322 31.7083 86.5653 33.3305 83.518C33.6181 83.0261 33.8418 82.4982 33.996 81.9475C34.21 81.0336 34.0303 80.0738 33.767 79.1751C32.8035 75.9529 30.7775 73.169 28.0318 71.2942C26.1058 69.9854 23.9144 69.1892 21.7359 68.4214C20.2143 67.8848 18.5472 67.3657 17 67.586C17.3248 67.2176 17.6744 66.8728 18.0465 66.5543C18.5044 66.1616 18.9774 65.9326 19.5659 66.0177C20.1544 66.1027 20.7129 66.19 21.2779 66.2903C22.4228 66.6481 23.5485 67.0756 24.6677 67.5162C25.404 67.7913 26.1193 68.1216 26.8077 68.5043C27.493 68.9308 28.1512 69.4007 28.7787 69.9113C30.6342 71.353 32.588 72.6585 34.6252 73.8179C36.9792 75.1419 39.4509 76.2173 41.9205 77.308C42.1824 77.4451 42.4715 77.5197 42.7658 77.5261C42.9133 77.5258 43.0564 77.4755 43.1727 77.3831C43.2889 77.2906 43.3717 77.1614 43.4078 77.0157C43.4176 76.8568 43.3819 76.6984 43.3051 76.5598C42.8771 75.6676 41.9055 75.2183 41.026 74.7842C37.3751 72.9825 34.1651 70.3889 30.9893 67.815C30.9122 67.7527 30.8444 67.6792 30.7881 67.5969L31.336 67.4726C34.8901 70.0745 38.6436 72.381 42.5604 74.3698C42.7673 74.4774 42.9748 74.5821 43.1831 74.6839C43.3329 74.7602 43.4806 74.8344 43.6325 74.902C44.6876 75.4299 45.7426 75.9926 46.5365 76.8652C47.0486 77.467 47.4803 78.1351 47.8205 78.8523C48.6952 80.5366 49.4421 82.2868 50.0547 84.0874C50.0664 84.1258 50.08 84.1637 50.0954 84.2008C50.173 84.4758 50.3073 84.7309 50.4891 84.949C50.5532 85.0221 50.6292 85.0833 50.7138 85.13C51.1162 85.3721 51.6683 85.3459 52 85.6557Z" fill="black"/>
<path d="M31.3489 67.4791C34.9036 70.0772 38.6584 72.3795 42.5768 74.3637L43.1997 74.6795C44.3985 75.2762 45.6465 75.8686 46.5563 76.8574C47.068 77.4595 47.4998 78.1273 47.8407 78.8438C48.7162 80.525 49.4627 82.2726 50.0734 84.0709C50.2104 84.4695 50.3709 84.9072 50.7349 85.112C51.0988 85.3167 51.6768 85.3015 52 85.6107C51.7089 85.981 51.4135 86.3469 51.1073 86.6997C48.8546 89.3828 46.275 91.7629 43.4309 93.7825C41.6713 95.0327 39.8153 96.1412 37.9636 97.2477L34.5385 99.2884C33.1064 100.142 31.655 101.005 30.0667 101.497C29.4694 101.682 28.8379 101.821 28.2321 102C27.6028 101.02 26.9755 100.04 26.3312 99.0924L22.3453 97.1932C24.4859 95.9605 26.3526 94.2072 27.911 92.2579C30.0517 89.5746 31.6979 86.5124 33.3205 83.4698C33.6078 82.9784 33.8316 82.4513 33.9862 81.9016C34.2003 80.9891 34.0205 80.0286 33.7572 79.1312C32.7928 75.9242 30.7722 73.153 28.0352 71.284C26.1086 69.9772 23.9165 69.1844 21.7373 68.4156C20.2153 67.882 18.5477 67.3615 17 67.5836C17.3254 67.2156 17.6751 66.8707 18.0468 66.5513C18.5049 66.1614 18.978 65.9327 19.5667 66.0177C20.1554 66.1026 20.7141 66.1897 21.2792 66.2877C22.4245 66.6471 23.5505 67.074 24.67 67.5139C25.4069 67.7877 26.1225 68.1175 26.8107 68.5005C27.4962 68.9263 28.1546 69.3955 28.7823 69.9053C30.6415 71.3416 32.5987 72.6415 34.6391 73.7952C36.9939 75.1194 39.4664 76.2019 41.9367 77.28C42.1986 77.417 42.4878 77.4915 42.7823 77.4978C42.9299 77.4983 43.0735 77.4483 43.19 77.3559C43.3064 77.2635 43.389 77.134 43.4245 76.9881C43.4341 76.8302 43.3984 76.6728 43.3217 76.5351C42.8936 75.6443 41.9217 75.1935 41.0419 74.7622C37.3899 72.9632 34.1789 70.3714 31.0021 67.7927C30.9244 67.7312 30.8565 67.6577 30.8009 67.5749L31.3489 67.4791Z" fill="#254C63"/>
<path d="M75.5 65.5C75.5 72.6627 69.4731 78.5 62 78.5C54.5269 78.5 48.5 72.6627 48.5 65.5C48.5 58.3373 54.5269 52.5 62 52.5C69.4731 52.5 75.5 58.3373 75.5 65.5Z" fill="#222222" stroke="#353535"/>
<path d="M74.8678 120C77.4358 119.181 80.0431 118.346 82.2986 116.848C83.8831 115.796 85.249 114.442 86.6871 113.19C87.7689 112.249 88.8966 111.361 89.8888 110.322C90.7778 109.35 91.6097 108.326 92.3803 107.255C94.1346 104.923 95.9463 102.635 97.8157 100.392C98.8188 99.1951 99.8788 97.9765 101.28 97.3106C103.769 96.1231 106.691 96.9244 109.318 97.739C113.252 98.9598 117.166 100.254 120.847 102.112C122.94 103.171 124.968 104.351 127.082 105.366C130.946 107.219 135.048 108.491 139.135 109.756C139.439 109.888 139.776 109.916 140.097 109.836C140.326 109.729 140.523 109.562 140.667 109.352C141.2 108.684 141.627 107.935 141.932 107.133C141.991 107.042 142.012 106.931 141.993 106.824C141.974 106.718 141.916 106.622 141.83 106.558C140.081 104.829 137.813 103.765 135.693 102.533C134.006 101.555 132.39 100.456 130.778 99.3572C129.228 98.3028 127.665 97.2374 126.365 95.8812C125.709 95.1953 125.119 94.4384 124.409 93.8124C123.781 93.2911 123.117 92.8177 122.42 92.3963C119.305 90.3758 116.331 88.1382 113.521 85.6996C111.383 83.8439 109.633 81.4534 107.349 79.7886C105.948 78.7676 104.318 77.8375 102.604 78.024C100.519 78.246 98.9805 80.0217 97.5272 81.5533C92.6426 86.7051 86.4794 90.3919 81.0288 94.9223C76.5791 98.6158 72.4201 103.004 67 104.953C67.2426 105.77 67.3278 106.587 67.5726 107.395C67.8776 108.518 68.2581 109.618 68.7113 110.689C69.1606 111.636 69.6664 112.556 70.2258 113.441L72.3982 117.043C72.8353 117.776 73.2921 118.519 73.9171 119.101C74.245 119.421 74.8678 119.536 74.8678 120Z" fill="#242424"/>
<path d="M134.84 114.991C135.085 115.315 135.251 115.685 135.327 116.076C135.403 116.467 135.386 116.868 135.279 117.252C136.058 117.78 137.007 118.042 137.968 117.994C138.924 117.945 139.864 117.743 140.749 117.398C141.515 117.135 142.24 116.779 142.907 116.337C144.054 115.544 144.881 114.409 145.549 113.231C145.92 112.583 146.236 111.742 145.758 111.158C145.575 110.959 145.351 110.797 145.1 110.681C143.413 109.778 141.658 108.994 139.847 108.335C139.349 108.12 138.808 108.006 138.259 108C137.584 108.035 136.972 108.382 136.437 108.769C135.235 109.646 134.266 110.772 133.606 112.059C133.399 112.47 132.777 113.449 133.084 113.872C133.224 114.067 133.741 114.135 133.961 114.257C134.305 114.441 134.605 114.691 134.84 114.991Z" fill="#FBBEBE"/>
<path d="M145.298 110.004C148.92 110.704 152.25 112.518 155.81 113.497C157.251 113.893 158.734 114.164 160.11 114.746C161.487 115.327 162.784 116.322 163.377 117.739C163.627 118.419 163.793 119.13 163.871 119.854C164.025 120.877 164.151 122.021 163.565 122.861C162.946 123.749 161.778 123.947 160.731 124.075C156.968 124.542 153.205 125.006 149.429 125.335C148.666 125.384 147.907 125.478 147.154 125.617C146.533 125.748 145.928 125.941 145.311 126.092C144.515 126.287 143.702 126.407 142.892 126.536C140.823 126.843 138.729 127.154 136.651 126.916C135.703 126.807 134.641 126.49 134.224 125.601C134.05 125.141 133.977 124.646 134.01 124.153C134.01 122.836 133.988 121.517 134.01 120.2C134.029 118.847 134.093 117.444 134.684 116.238C134.831 115.869 135.107 115.572 135.456 115.405C135.672 115.341 135.897 115.32 136.12 115.343C137.233 115.383 138.385 115.432 139.38 115.947C140.17 116.353 140.739 115.139 141.544 115.503C143.07 116.202 142.036 114.081 143.577 114.741C143.937 113.591 145.465 114.275 145.2 113.095C144.934 111.916 145.887 112.429 145.778 111.217C145.773 110.952 145.724 110.691 145.632 110.444C145.512 110.206 145.551 109.966 145.298 110.004Z" fill="#151515"/>
<path opacity="0.06" d="M35 40.6381C34.164 41.136 33.1276 41.0435 32.1536 41.0215C31.3019 41.0035 30.45 41.0484 29.6046 41.1559C29.3002 41.1776 29.0026 41.2583 28.7276 41.3938C28.3696 41.6299 28.0866 41.9675 27.9132 42.3653C27.5683 43.0425 27.3361 43.7736 27.2258 44.5287C27.1052 45.3769 27.1181 46.3044 26.6009 46.9763C25.8964 47.8906 24.7975 47.7496 23.7998 47.9302C22.9316 48.1006 22.0994 48.4257 21.3413 48.8908C20.5938 49.3523 19.9524 49.9732 19.4608 50.7111C18.9692 51.449 18.639 52.2867 18.4928 53.1669C18.4648 53.3674 18.4454 53.5656 18.4368 53.7661C18.4152 54.3345 18.4712 54.9139 18.398 55.4713C18.3802 55.6104 18.3529 55.7481 18.3161 55.8832C18.3066 55.923 18.2943 55.962 18.2795 56C18.2471 55.7422 18.2105 55.4889 18.1674 55.2355C17.5105 54.5537 16.9414 53.7889 16.4738 52.9598C16.3478 52.8168 16.2465 52.6529 16.1743 52.4751C15.4762 50.814 15 49.1331 15 47.3134C14.9999 44.927 15.7378 42.6016 17.1083 40.67C18.4789 38.7383 20.4118 37.2992 22.6306 36.5586C24.8493 35.818 27.2404 35.8137 29.4617 36.5465C31.683 37.2792 33.6207 38.7114 34.9978 40.6381H35Z" fill="black"/>
<path d="M34.7266 36.3315C34.1755 35.0276 33.0112 34.1029 31.8147 33.3776C29.4559 31.9401 26.7413 31.0373 23.988 31C22.5989 31.0004 21.2135 31.1472 19.8538 31.4383C18.5289 31.6803 17.2309 32.0569 15.9791 32.5624C13.9137 33.4403 12.088 34.818 10.6592 36.5769C10.359 36.6002 10.0613 36.6493 9.76928 36.7237C8.60279 37.0218 7.55209 37.677 6.5936 38.4198C5.79149 39.0136 5.07912 39.7246 4.47934 40.5301C3.77738 41.5587 3.29183 42.7249 3.05339 43.9551C2.23642 47.8031 3.24209 51.7737 3.97972 55.637C4.71735 59.5003 5.14835 63.7208 3.33643 67.1919C2.65241 68.5067 1.68105 69.6243 0.951991 70.904C0.222935 72.1837 -0.261672 73.7242 0.152175 75.1442C0.64536 76.871 2.30503 77.9666 3.17132 79.5203C3.70187 80.5366 3.89123 81.7028 3.71033 82.8398C3.52942 83.9767 2.98825 85.0216 2.16994 85.8138C3.53156 86.2958 5.04757 85.7765 6.2741 85.0052C7.24657 84.4265 8.07393 83.6245 8.69071 82.6626C10.2324 80.1119 9.54842 76.8184 10.0845 73.871C10.7985 70.0143 13.6805 66.5739 13.2838 62.669C13.0157 60.0394 11.3175 57.859 9.98157 55.6042C9.09049 54.1004 8.34161 52.5133 7.74508 50.8643C7.31622 49.6876 6.96885 48.4232 7.18113 47.1873C7.25138 46.81 7.36435 46.4423 7.51779 46.0916C7.51779 46.1333 7.51779 46.1749 7.51779 46.2165C7.54222 47.3516 7.7917 48.4698 8.25113 49.5035C9.84648 52.8343 14.0943 54.0615 15.8934 57.2805C16.4187 56.6955 16.9655 56.0819 17.1799 55.3193C17.3686 54.64 17.2721 53.9169 17.3 53.2112C17.3751 51.2391 18.548 49.3808 20.1905 48.364C20.9444 47.9007 21.7728 47.5779 22.6371 47.4108C23.6278 47.2289 24.7214 47.367 25.4247 46.4576C25.9393 45.8002 25.9265 44.8667 26.0487 44.0252C26.1574 43.2732 26.3886 42.5451 26.7327 41.8712C26.9047 41.4756 27.1865 41.1404 27.5432 40.907C27.8172 40.7711 28.1143 40.6907 28.4181 40.6703C29.2587 40.5633 30.1058 40.5187 30.9527 40.5366C31.9326 40.5607 32.9811 40.6506 33.8217 40.1356C35.0053 39.3993 35.2777 37.6463 34.7266 36.3315Z" fill="#403D7E"/>
<path opacity="0.06" d="M158 24.3561C158 24.3864 158 24.4145 158 24.4448C157.6 27.8167 154.284 27.661 153.511 32.9739C153.206 35.0554 149.974 35.4402 147.85 36C146.932 35.6974 146.004 35.4359 145.087 35.1095C142.965 34.3594 144.448 33.2333 145.356 32.0229C148.329 28.0587 148.893 22.6421 152.268 19C153.506 21.2998 155.464 23.1518 157.856 24.2848C157.903 24.3151 157.951 24.3367 158 24.3561Z" fill="black"/>
<path d="M158 22.4989C158 23.0077 157.97 23.516 157.911 24.0216C157.5 27.5136 155.693 30.7135 152.874 32.9412C150.056 35.1689 146.447 36.2489 142.816 35.9516C139.184 35.6543 135.816 34.0032 133.427 31.3491C131.038 28.695 129.817 25.2473 130.022 21.7385C130.228 18.2297 131.844 14.9366 134.528 12.5589C137.212 10.1811 140.751 8.90635 144.394 9.00537C148.038 9.10438 151.497 10.5694 154.038 13.0891C156.578 15.6088 158 18.9846 158 22.4989Z" fill="#A1616A"/>
<path d="M163.306 24.0065C164.866 23.9297 166.365 24.5482 167.806 25.1557C173.52 27.5683 179.281 30.0006 184.387 33.5427C186.904 35.2973 189.236 37.2888 191.565 39.2868L201.132 47.5027C202.97 49.0796 204.821 50.6719 206.297 52.602C207.165 53.7924 207.957 55.0378 208.668 56.3305L210.087 58.776C210.669 59.7332 211.177 60.734 211.606 61.7698C212.336 63.6581 212.607 65.8602 214.078 67.2397C215.065 68.1674 216.426 68.5447 217.632 69.1566C218.839 69.7685 220.019 70.8432 220 72.2074C220 73.0847 219.475 73.8743 219.08 74.6638C218.262 76.3137 217.919 78.1627 218.09 80L202.445 67.9152C201.822 67.4349 201.171 66.9392 200.405 66.7769C199.411 66.5576 198.398 66.937 197.439 67.2792C189.878 69.9743 181.843 71.0419 173.849 70.4133C170.315 70.1326 166.725 69.49 163.631 67.742C161.919 66.7769 160.404 65.4983 158.901 64.2328C157.024 62.6449 155.14 61.0526 153.476 59.2366C153.042 58.7519 152.59 58.2189 152.48 57.5697C152.397 57.1003 152.499 56.6222 152.538 56.1485C152.812 52.8213 150.078 50.0513 149.244 46.8206C148.874 45.2973 148.925 43.7004 149.393 42.2045C149.86 40.7087 150.725 39.3716 151.894 38.3393C153.758 39.9887 153.691 42.8859 153.474 45.3796C153.181 48.7375 154.109 50.4022 153.816 53.7622C154.997 53.7184 154.782 54.486 155.285 53.4047C155.789 52.3235 155.887 51.104 155.982 49.9131C156.331 45.6055 156.754 41.3053 157.251 37.0124C157.499 34.8652 157.781 32.7224 158.052 30.5774C158.217 29.2725 158.195 28.053 158.877 26.895C159.823 25.2917 161.431 24.0964 163.306 24.0065Z" fill="#474747"/>
<path d="M164.819 28.13C165.815 27.8301 166.886 28.105 167.885 28.3904C169.653 28.8931 171.41 29.4243 173.157 29.984C174.585 30.4402 176.032 30.9297 177.24 31.79C178.494 32.6816 179.413 33.921 180.323 35.1396C180.975 36.0166 181.627 36.904 182.062 37.8997C182.627 39.2037 182.779 40.6327 182.931 42.0367C183.031 42.6425 183.022 43.2602 182.907 43.8635C182.703 44.5185 182.344 45.1195 181.857 45.6195C181.109 46.4684 180.242 47.2136 179.28 47.8339C176.723 49.4836 173.631 50.1711 170.619 50.7772C167.931 51.3168 165.223 51.8188 162.481 51.9813C161.414 52.0458 160.176 51.9813 159.524 51.173C159.338 50.921 159.192 50.6446 159.089 50.3523C157.487 46.2842 156.793 41.9389 157.053 37.5976C157.077 36.8063 157.205 36.021 157.434 35.2604C157.659 34.6517 157.939 34.0628 158.27 33.5002C159.094 32.0066 159.961 30.461 161.38 29.4611C162.864 28.4196 164.787 28.0905 166.627 28.1571" fill="#A1616A"/>
<path opacity="0.06" d="M175 43.9084C174.136 44.4844 173.835 45.5973 173.725 46.6233C173.258 50.9857 175.076 55.3047 174.956 59.6889C174.859 63.1668 173.545 66.5055 172.249 69.7507C170.039 75.2869 168.888 81.2992 168.442 87.2354C167.996 93.1715 167.344 99.3533 164.124 104.374C163.392 105.511 162.54 106.568 161.824 107.711C161.072 108.906 160.477 110.189 159.814 111.432C157.859 115.104 155.339 118.453 152.345 121.359C151.466 122.207 150.535 123.029 149.414 123.518C148.692 123.828 147.915 123.991 147.128 124C146.341 124.008 145.56 123.86 144.832 123.565C143.329 122.95 142.064 121.563 142.002 119.955C141.948 118.516 142.815 117.218 143.685 116.066C146.634 112.163 150.024 108.607 153.79 105.468C154.473 104.898 155.194 104.309 155.548 103.496C155.945 102.559 155.783 101.497 155.833 100.481C155.914 98.8621 156.551 97.3253 156.931 95.7473C158.469 89.3373 155.736 82.3382 157.96 76.1281C158.454 74.7478 159.187 73.4285 159.361 71.9743C159.484 70.957 159.227 69.8202 158.586 69.0573C157.983 68.3715 157.645 67.4967 157.632 66.588C157.632 66.4011 157.632 66.2164 157.656 66.0338C157.924 63.1885 158.19 60.3302 158.045 57.4762C157.9 54.6222 157.327 51.753 155.996 49.2164C155.306 47.9014 154.414 46.6711 153.988 45.2517C153.302 42.9542 153.935 40.4697 154.957 38.2961C155.754 36.5963 156.817 34.9769 158.302 33.8119C161.061 31.6491 165.191 31.3991 168.212 33.188C170.439 34.5053 171.964 36.7202 173.2 38.9786C174.088 40.6284 175.024 42.026 175 43.9084Z" fill="black"/>
<path d="M176 43.9084C175.136 44.4844 174.836 45.5973 174.726 46.6233C174.258 50.9857 176.077 55.3047 175.956 59.6889C175.859 63.1668 174.546 66.5055 173.25 69.7507C171.04 75.2869 169.891 81.2992 169.443 87.2354C168.994 93.1715 168.344 99.3533 165.124 104.374C164.392 105.511 163.542 106.568 162.824 107.711C162.075 108.906 161.477 110.189 160.814 111.432C158.859 115.104 156.339 118.453 153.345 121.359C152.466 122.207 151.533 123.029 150.412 123.518C149.69 123.828 148.913 123.991 148.126 124C147.339 124.008 146.558 123.86 145.83 123.565C144.329 122.95 143.064 121.563 143.003 119.955C142.946 118.516 143.813 117.218 144.685 116.066C147.634 112.163 151.024 108.607 154.79 105.468C155.474 104.898 156.196 104.309 156.548 103.496C156.948 102.559 156.783 101.497 156.833 100.481C156.915 98.8621 157.552 97.3253 157.932 95.7473C159.469 89.3373 156.737 82.3382 158.96 76.1281C159.454 74.7478 160.19 73.4285 160.363 71.9743C160.484 70.957 160.229 69.8202 159.588 69.0573C158.974 68.3762 158.627 67.5004 158.608 66.588C158.608 66.4011 158.608 66.2164 158.632 66.0338C158.898 63.1885 159.164 60.3302 159.019 57.4762C158.874 54.6222 158.301 51.753 156.969 49.2164C156.28 47.9014 155.388 46.6711 154.962 45.2517C154.276 42.9542 154.909 40.4697 155.93 38.2961C156.73 36.5963 157.791 34.9769 159.276 33.8119C162.035 31.6491 166.165 31.3991 169.186 33.188C171.413 34.5053 172.938 36.7202 174.174 38.9786C175.084 40.6284 176.015 42.026 176 43.9084Z" fill="#A1616A"/>
<path d="M205.913 95.1496C206.549 94.4021 207.531 94.0676 208.475 93.8184C209.996 93.4191 211.55 93.1621 213.117 93.0506C214.09 92.9443 215.074 93.0058 216.026 93.2325C216.968 93.4951 217.861 94.0653 218.339 94.9296C218.761 95.6929 218.827 96.5998 218.883 97.4731C218.997 99.269 219.104 101.065 218.812 102.834C218.624 103.956 218.272 105.043 218.045 106.156C217.306 109.807 217.947 113.585 217.881 117.311C217.866 118.106 217.815 118.921 217.485 119.642C217.134 120.407 216.502 120.989 215.885 121.563C215.206 122.185 214.517 122.811 213.699 123.227C212.487 123.844 211.092 123.947 209.737 123.99C208.913 124.015 208.064 124.017 207.305 123.709C206.547 123.402 205.864 122.71 205.809 121.873C205.72 120.452 207.299 119.523 207.75 118.176C208.108 117.103 207.697 115.917 207.126 114.941C206.212 113.384 204.906 112.102 203.344 111.225C202.765 110.902 202.148 110.631 201.666 110.175C201.184 109.719 200.857 109.012 201.063 108.379C201.308 107.613 202.186 107.256 202.975 107.18C203.764 107.104 204.597 107.162 205.307 106.805C205.939 106.489 206.379 105.878 206.682 105.234C207.327 103.859 207.416 102.282 206.932 100.84C206.74 100.292 206.462 99.779 206.109 99.3207C205.778 98.8897 205.097 98.526 204.86 98.0545C204.44 97.206 205.349 95.8231 205.913 95.1496Z" fill="#333333"/>
<path opacity="0.06" d="M193.232 64.5117C189.715 61.381 184.811 60.5297 180.211 59.5797C177.842 59.0922 175.484 58.549 173.138 57.95C171.596 57.5554 170.05 57.1351 168.453 57.0258C166.856 56.9164 165.212 57.1416 163.845 57.9607C162.478 58.7799 161.448 60.2638 161.439 61.8656C161.439 62.5089 161.59 63.1393 161.544 63.7762C161.469 64.8012 160.905 65.7061 160.519 66.6647C159.93 68.1799 159.84 69.8457 160.262 71.4166C160.943 73.919 162.906 76.1234 162.736 78.7074C162.453 83.0325 162.54 87.5528 163.422 91.788C164.303 96.0231 165.404 100.277 165.379 104.611C165.353 108.945 164.05 113.502 160.837 116.388C163.014 118.446 165.676 119.912 168.573 120.645C171.049 121.269 173.994 121.206 175.757 119.347C176.166 118.918 176.504 118.346 176.419 117.756C176.331 117.384 176.176 117.031 175.961 116.716C174.75 114.531 174.897 111.838 175.433 109.397C175.97 106.957 176.888 104.585 177.12 102.094C177.29 100.286 177.098 98.4483 177.441 96.6642C177.705 95.2983 178.276 94.0116 178.619 92.6628C179.63 88.6615 178.568 84.4607 177.511 80.4743C178.395 82.5222 180.067 84.1197 181.796 85.5093C184.419 87.615 187.592 89.4742 190.926 89.1011C193.895 88.7665 196.422 86.6887 198.166 84.2505C198.181 81.4307 199.152 78.7653 198.979 75.9519C198.868 74.7161 198.649 73.4926 198.324 72.2957C197.998 70.9577 197.664 69.6067 197.046 68.378C196.23 66.7461 194.591 65.719 193.232 64.5117Z" fill="black"/>
<path d="M194.093 64.514C190.484 61.3823 185.455 60.5307 180.734 59.5805C178.303 59.0928 175.884 58.5495 173.478 57.9503C171.897 57.5556 170.308 57.1352 168.672 57.0258C167.036 56.9164 165.349 57.1416 163.946 57.961C162.544 58.7804 161.484 60.2647 161.478 61.8671C161.478 62.5106 161.631 63.1412 161.582 63.7783C161.508 64.8036 160.916 65.7088 160.532 66.6676C159.928 68.1835 159.836 69.8498 160.269 71.4209C160.966 73.9241 162.981 76.1292 162.808 78.7139C162.515 83.0404 162.605 87.5621 163.509 91.7984C164.414 96.0348 165.543 100.291 165.517 104.626C165.491 108.961 164.145 113.504 160.846 116.387C163.08 118.445 165.812 119.911 168.783 120.644C171.324 121.269 174.348 121.206 176.155 119.347C176.574 118.918 176.921 118.345 176.834 117.755C176.744 117.383 176.585 117.03 176.364 116.715C175.121 114.529 175.272 111.835 175.822 109.394C176.373 106.953 177.315 104.581 177.555 102.088C177.728 100.28 177.531 98.4415 177.885 96.6569C178.154 95.2905 178.741 94.0035 179.091 92.6543C180.129 88.6517 179.041 84.4496 177.955 80.4621C178.861 82.5106 180.576 84.1086 182.353 85.4986C185.044 87.6049 188.297 89.4647 191.719 89.0914C194.764 88.7568 197.357 86.6783 199.147 84.2394C199.16 81.4188 200.156 78.7525 199.979 75.9383C199.865 74.7021 199.64 73.4783 199.306 72.281C198.974 70.9426 198.629 69.5912 197.995 68.3621C197.182 66.7491 195.487 65.7216 194.093 64.514Z" fill="#A1616A"/>
<path d="M169.085 119.044C167.522 118.087 166.172 116.816 165.12 115.311C164.741 114.771 164.4 114.197 163.927 113.739C163.454 113.281 162.813 112.94 162.159 113.009C161.42 113.086 160.828 113.651 160.359 114.234C159.102 115.8 158.292 117.714 156.897 119.16C155.287 120.833 153.039 121.73 150.796 122.304C148.553 122.878 146.237 123.18 144.038 123.906C143.348 124.133 142.622 124.442 142.249 125.069C141.776 125.868 142.036 126.915 142.534 127.708C143.453 129.207 145.033 130.173 146.682 130.747C148.331 131.321 150.076 131.55 151.795 131.888C154.833 132.486 157.945 133.443 160.968 132.769C162.174 132.499 163.312 131.976 164.53 131.749C167.299 131.231 170.156 132.278 172.936 131.858C174.281 131.655 175.55 131.115 176.771 130.507C177.383 130.241 177.94 129.861 178.411 129.387C178.857 128.89 179.125 128.185 178.942 127.543C178.837 127.172 178.597 126.86 178.437 126.51C178.185 125.971 178.134 125.365 178.075 124.771C177.845 122.513 177.455 120.274 176.907 118.072C176.718 117.303 176.434 116.446 175.721 116.11C175.575 116.031 175.405 116.012 175.246 116.057C174.992 116.153 174.909 116.461 174.832 116.72C174.623 117.437 174.223 118.082 173.675 118.586C173.126 119.09 172.451 119.433 171.723 119.578C170.994 119.723 170.24 119.665 169.542 119.41C168.844 119.155 168.229 118.712 167.764 118.13" fill="#333333"/>
<path opacity="0.06" d="M157.977 22.7612C157.977 23.28 157.946 23.7984 157.885 24.3139C157.163 24.4174 156.426 24.3563 155.733 24.1357C155.04 23.9151 154.411 23.5411 153.898 23.0441C153.414 22.5529 153.052 21.9586 152.573 21.4629C152.094 20.9673 151.427 20.555 150.739 20.6076C150.153 20.6493 149.644 21.0046 149.243 21.4169C148.721 21.9537 148.338 22.6005 148.127 23.3051C147.973 23.8029 147.897 24.3687 147.466 24.6999C147.036 25.031 146.506 25.0091 145.995 24.9915C145.333 24.9696 144.645 24.9389 144.061 24.6407C142.961 24.0727 142.589 22.7722 142.181 21.6406C141.494 19.7392 139.947 16.1426 137.543 15.7588C136.397 15.5768 135.003 16.1558 134.105 16.7808C132.75 17.7216 131.751 18.3313 130 18.3049C131.104 15.2222 133.315 12.6141 136.239 10.9444C139.164 9.27482 142.613 8.65194 145.972 9.18661C149.332 9.72127 152.384 11.3788 154.586 13.8644C156.789 16.35 157.998 19.5025 158 22.7612H157.977Z" fill="black"/>
<path d="M130.867 17.2641C130.47 17.2727 130.075 17.21 129.7 17.079C128.631 16.6603 128.112 15.4262 128.021 14.2825C127.88 12.5393 128.462 10.8293 129.046 9.17868C129.169 8.81947 129.316 8.43382 129.638 8.23328C129.898 8.10539 130.183 8.03405 130.473 8.02393C132.054 7.80355 133.426 6.83612 134.594 5.75189C135.761 4.66766 136.814 3.43799 138.118 2.53446C141.576 0.147837 146.708 0.592989 149.699 3.53716C150.884 4.70072 151.902 6.27858 153.545 6.55184C154.492 6.70831 155.507 6.38216 156.408 6.73475C157.069 6.99259 157.54 7.57657 157.919 8.17378C159.148 10.1042 159.725 12.3917 159.917 14.6725C160.109 16.9534 159.932 19.2475 159.754 21.5283C159.764 21.8698 159.676 22.207 159.501 22.5002C159.36 22.6692 159.183 22.8047 158.983 22.8968C158.146 23.3098 157.199 23.4487 156.279 23.2936C155.358 23.1386 154.509 22.6975 153.853 22.033C153.386 21.5415 153.04 20.9443 152.58 20.4441C152.12 19.9438 151.479 19.5339 150.818 19.5868C150.256 19.6287 149.763 19.9857 149.38 20.4C148.878 20.9394 148.511 21.5894 148.307 22.2974C148.162 22.7976 148.087 23.3662 147.673 23.6968C147.259 24.0273 146.75 24.0097 146.257 23.9921C145.622 23.9678 144.961 23.9392 144.4 23.6373C143.34 23.0687 142.983 21.7619 142.594 20.6248C141.933 18.7142 140.448 15.0979 138.136 14.7144C137.034 14.5293 135.695 15.1133 134.832 15.7413C133.51 16.6801 132.559 17.2928 130.867 17.2641Z" fill="#181818"/>
<path opacity="0.06" d="M57.9777 99.1095C57.8331 100.06 56.9571 100.803 56.3389 101.541C54.6583 103.559 52.9546 105.584 51.0748 107.431C49.063 109.406 46.8543 111.166 44.6476 112.925L41.785 115.204C41.4319 115.526 41.018 115.774 40.5675 115.934C40.0398 116.065 39.4821 115.999 39 115.749C39.0419 115.665 39.0859 115.588 39.1341 115.511L42.5667 109.787C43.2415 108.666 43.6836 107.644 44.4527 106.591C45.6116 105.015 46.7809 103.43 48.208 102.093C50.0123 100.402 52.3259 99.1741 54.4718 97.9523C54.7819 97.0265 56.0812 96.77 56.9592 97.2079C57.2846 97.3757 57.5777 97.5995 57.8247 97.8689C57.982 98.2625 58.0347 98.6898 57.9777 99.1095Z" fill="black"/>
<path d="M42.8113 110.489L39.2476 116.445C39.1018 116.685 38.9517 116.959 39.0148 117.232C39.0949 117.461 39.2476 117.658 39.4499 117.794C40.8162 118.902 42.3305 120.071 42.7591 121.773C43.0658 122.988 42.759 124.289 43.0332 125.508C43.5357 127.707 45.7527 129.043 47.85 129.889C52.5494 131.784 57.7665 132.513 62.7596 131.624C67.7526 130.734 72.4911 128.201 75.7241 124.306C76.7162 123.109 77.5647 121.799 78.5067 120.563C81.1175 117.147 84.431 114.343 87.7183 111.567C91.9499 107.993 94.4432 102.663 98.1613 98.555C98.838 97.8067 99.5842 97.0369 100.555 96.7896C101.098 96.653 101.86 96.8547 101.882 97.4142C101.932 98.4986 102.806 99.3856 103.405 100.292C105.659 103.727 108.017 107.269 111.5 109.459C113.406 110.661 115.566 111.396 117.72 112.062C123.181 113.758 128.748 115.098 134.309 116.425C134.59 115.866 134.927 115.336 135.314 114.844C135.891 114.139 136.65 113.602 137.229 112.892C138.289 111.615 138.661 109.926 139 108.303C135.678 106.276 132.269 104.183 128.992 102.075C127.343 101.016 125.683 99.9343 124.347 98.5029C123.477 97.5617 122.746 96.4838 121.873 95.5361C120.981 94.6165 120.02 93.766 118.997 92.9922L111.165 86.7398C108.915 84.9463 106.622 83.053 104.421 81.1966C103.183 80.1512 101.81 79.0517 100.191 79.0018C98.8053 78.9584 97.5304 79.698 96.3382 80.4093C89.3355 84.5892 82.2285 88.581 75.017 92.385C73.5572 93.1527 72.0908 93.9161 70.6984 94.7988C67.9893 96.5168 65.5839 98.6697 63.5798 101.17C63.2121 101.628 62.7465 102.149 62.1635 102.079C62.0032 102.056 61.8488 102.002 61.7087 101.921C60.8102 101.442 60.2598 100.515 59.7507 99.6372C59.2416 98.7588 58.6737 97.8349 57.7622 97.3795C56.8506 96.9241 55.5039 97.1908 55.1797 98.1559C52.941 99.4637 50.5478 100.73 48.6724 102.489C47.1908 103.879 45.9768 105.525 44.7737 107.167C43.9709 108.262 43.5096 109.325 42.8113 110.489Z" fill="#242424"/>
<path opacity="0.06" d="M37 74C37 74 40.4943 75.4094 43 77L37 74Z" fill="black"/>
<path d="M216.9 76.9071C216.966 78.8788 217.018 80.8547 216.994 82.8243C216.981 83.8682 216.935 84.9565 216.416 85.8716C216.046 86.5288 215.462 87.0424 214.884 87.5453L211.279 90.7004C210.161 91.6789 208.955 92.6996 207.464 92.9426C205.759 93.2216 204.094 92.4207 202.454 91.886C200.803 91.349 199.075 91.0686 197.333 91.0555C196.334 91.0555 195.328 91.1316 194.343 90.9794C193.631 90.8485 192.932 90.6568 192.255 90.4067L189 89.3163C189.092 88.5238 189.875 88.0187 190.532 87.5178C192.863 85.692 193.885 82.7566 194.621 79.9481C195.218 77.7554 195.644 75.5224 195.895 73.268C196.006 72.1522 196.057 71.0174 195.814 69.9206C195.584 69.0358 195.262 68.1761 194.851 67.355L193.706 64.8635C193.049 63.456 191.736 62.8305 190.399 62C192.417 62.7396 194.877 63.0292 196.411 64.4958C196.707 64.8207 197.058 65.0951 197.449 65.3073C197.867 65.4996 198.342 65.5186 198.799 65.5905C201.077 65.9201 203.015 67.3022 204.897 68.5807C207.201 70.1474 209.569 71.6189 212.002 72.9954C213.096 73.6167 214.225 74.2274 215.147 75.0749C216.068 75.9223 216.79 77.0508 216.85 78.2786" fill="#254C63"/>
<path opacity="0.06" d="M21.1342 73.1754C18.3141 73.7459 16.847 77.1402 17.0126 80.0763C17.1718 82.6988 18.2238 85.1812 19.9855 87.0916C21.1622 88.3581 22.6293 89.3361 23.692 90.7039C25.2623 92.7216 25.8087 95.3889 27.2134 97.5321C28.233 99.0871 29.6636 100.307 31.0855 101.477C34.3638 104.155 37.749 106.691 41.241 109.083C42.6608 110.054 44.2139 111.036 45.9219 110.999C47.531 110.964 49.0131 109.997 50.0629 108.746C51.1127 107.495 51.7838 105.975 52.4657 104.477C54.9224 98.9924 57.3962 93.4484 58.5707 87.5366C58.9386 85.6798 59.1859 83.7657 60.0077 82.0674C60.653 80.7459 61.6081 79.6137 62.46 78.4199C64.4725 75.587 65.8851 72.3551 66.6074 68.931C67.0764 66.6975 67.2334 64.3055 66.4633 62.1689C65.6932 60.0324 63.8238 58.1799 61.5974 58.0125C59.8356 57.8804 58.1061 58.8055 56.9229 60.1513C55.7398 61.4971 55.0428 63.2174 54.5674 64.9596C53.8859 67.4661 53.624 70.0728 53.793 72.6688C53.9307 74.7635 54.348 76.8781 53.9952 78.9485C53.7457 80.4089 53.124 81.7723 52.5088 83.1159C50.9191 86.5828 49.3036 90.0938 46.9007 93.0277C46.1177 93.9837 45.04 94.9506 43.8418 94.7259C42.1854 94.4176 41.7466 92.27 40.9291 90.7612C39.9267 88.911 38.0251 87.7987 36.5343 86.3295C34.4133 84.237 33.142 81.4309 31.634 78.8406C30.126 76.2503 28.175 73.6931 25.3957 72.6997C22.6164 71.7063 18.9121 72.9816 18.1979 75.9067" fill="black"/>
<path opacity="0.06" d="M23.2454 75.1901C20.4227 75.7605 16.8298 76.1327 17.0063 79.0731C17.1636 81.696 18.216 84.1789 19.9795 86.0882C21.1563 87.3569 22.6236 88.3348 23.6864 89.7026C25.257 91.7201 25.8034 94.3852 27.2083 96.5304C28.2281 98.0876 29.6588 99.3078 31.0809 100.475C34.3596 103.155 37.7453 105.69 41.2378 108.081C42.6577 109.054 44.211 110.036 45.9192 109.999C47.5285 109.964 49.0108 108.995 50.0607 107.746C51.1106 106.497 51.7819 104.975 52.4639 103.475C54.9208 97.9907 57.395 92.4469 58.5696 86.5353C58.9375 84.6808 59.1849 82.7646 60.0068 81.0686C60.6522 79.7471 61.6074 78.615 62.4594 77.419C64.4725 74.5873 65.8854 71.3561 66.6074 67.9327C67.0764 65.6971 67.2334 63.3074 66.4632 61.1687C65.693 59.0301 63.8234 57.1821 61.5967 57.0125C59.8347 56.8804 58.1049 57.8076 56.9216 59.1512C55.7384 60.4947 55.0413 62.2171 54.5658 63.9615C53.8841 66.4679 53.6222 69.0744 53.7913 71.6704C53.929 73.7672 54.3464 75.8817 53.9935 77.9498C53.744 79.4123 53.1222 80.7757 52.5069 82.1192C50.917 85.586 49.3013 89.0947 46.8982 92.0307C46.115 92.9866 45.0372 93.9513 43.8388 93.7288C42.1822 93.4183 41.7433 91.2708 40.9258 89.7642C39.9232 87.9141 38.0214 86.8018 36.5304 85.3327C34.4091 83.2425 33.1376 80.4343 31.6295 77.8441C30.1213 75.2539 28.17 72.699 25.3904 71.7034C22.6107 70.7079 26.0917 77.0842 25.3753 80.0092" fill="black"/>
<path d="M21.1342 72.885C18.3141 73.4448 16.847 76.775 17.0126 79.6556C17.1713 82.2294 18.2233 84.6658 19.9855 86.5407C21.1622 87.7834 22.6293 88.7429 23.692 90.0849C25.2623 92.0644 25.8087 94.6814 27.2134 96.7841C28.233 98.312 29.6636 99.5092 31.0855 100.657C34.3638 103.285 37.749 105.771 41.241 108.117C42.6608 109.072 44.2139 110.036 45.9219 109.999C47.531 109.964 49.0131 109.016 50.0629 107.788C51.1127 106.561 51.7838 105.07 52.4657 103.6C54.9224 98.2191 57.3962 92.7797 58.5707 86.9773C58.9386 85.1577 59.1859 83.2776 60.0077 81.6135C60.653 80.3169 61.6081 79.2061 62.46 78.0327C64.4728 75.2543 65.8855 72.084 66.6074 68.725C67.0764 66.5316 67.2334 64.1868 66.4633 62.0884C65.6932 59.99 63.8238 58.1769 61.5974 58.0127C59.8356 57.8809 58.1061 58.7907 56.9229 60.1111C55.7398 61.4315 55.0428 63.1192 54.5674 64.8286C53.8859 67.2878 53.624 69.8453 53.793 72.3923C53.9307 74.4475 54.348 76.5221 53.9952 78.5513C53.7457 79.9863 53.124 81.324 52.5088 82.6422C50.9191 86.0437 49.3036 89.4884 46.9007 92.367C46.1177 93.3048 45.04 94.2514 43.8418 94.0331C42.1854 93.7284 41.7466 91.6235 40.9291 90.1432C39.9267 88.3258 38.0251 87.2344 36.5343 85.7952C34.4133 83.7422 33.142 80.989 31.634 78.4476C30.126 75.9062 28.175 73.3994 25.3957 72.4247C22.6164 71.4501 18.9121 72.7014 18.1979 75.5712" fill="#FBBEBE"/>
<g opacity="0.06">
<path opacity="0.06" d="M10.1551 55.485C9.24847 53.9883 8.48653 52.4086 7.8796 50.7674L7.80542 50.5493C7.34503 50.0553 6.95785 49.4978 6.65568 48.8939C6.18795 47.8652 5.93411 46.7521 5.90955 45.6224C5.90955 45.5809 5.90955 45.5395 5.90955 45.498C5.75344 45.847 5.6385 46.213 5.56703 46.5886C5.34886 47.8187 5.70884 49.075 6.14081 50.2484C6.74817 51.8894 7.51008 53.469 8.41629 54.966C9.7711 57.2299 11.5012 59.4109 11.7695 62.0086C12.1731 65.8952 9.24096 69.3172 8.51664 73.158C7.9625 76.0915 8.665 79.3697 7.09638 81.9084C6.46939 82.8656 5.62745 83.6633 4.63764 84.2378C4.01682 84.6333 3.33714 84.9277 2.62396 85.1102C2.4939 85.2645 2.35398 85.4102 2.20508 85.5464C3.59044 86.0262 5.13288 85.5093 6.38079 84.7416C7.37022 84.1656 8.212 83.3674 8.83953 82.41C10.4082 79.8713 9.7122 76.5932 10.2576 73.6597C10.9841 69.821 13.9163 66.3968 13.5127 62.5102C13.2421 59.8973 11.5143 57.7184 10.1551 55.485Z" fill="black"/>
<path opacity="0.06" d="M35.3316 36.2923C34.7709 34.9946 33.5863 34.0742 32.3689 33.3523C30.8257 32.4265 29.1464 31.7494 27.3925 31.3457C28.5181 31.7385 29.6013 32.2434 30.6258 32.8528C31.8431 33.5769 33.0256 34.4951 33.5907 35.795C34.1557 37.0949 33.8743 38.8485 32.6613 39.5726C31.8061 40.0851 30.7392 39.9935 29.7422 39.9717C28.8806 39.952 28.0187 39.9958 27.1635 40.1026C26.8547 40.1249 26.5527 40.2048 26.2733 40.3381C25.9093 40.5739 25.6225 40.9114 25.4487 41.3087C25.0979 41.9794 24.8619 42.7041 24.7505 43.4527C24.6284 44.2902 24.6393 45.2084 24.1157 45.8736C23.4045 46.7788 22.2918 46.6414 21.2795 46.8202C20.4004 46.9889 19.5578 47.3107 18.7902 47.7711C17.1191 48.781 15.9257 50.6261 15.8493 52.5956C15.8232 53.2979 15.9191 54.0155 15.7293 54.6916C15.6069 55.086 15.4148 55.4554 15.1621 55.7821C15.5487 56.1952 15.8868 56.6511 16.17 57.1409C16.7045 56.5586 17.2609 55.9479 17.479 55.1889C17.671 54.5128 17.5729 53.793 17.6012 53.0907C17.6776 51.1278 18.8709 49.2782 20.5421 48.2662C21.3091 47.8051 22.152 47.4838 23.0314 47.3175C24.0393 47.1365 25.152 47.2739 25.8676 46.3687C26.3912 45.7144 26.3781 44.7853 26.5024 43.9478C26.613 43.1993 26.8483 42.4746 27.1984 41.8038C27.3734 41.4101 27.6601 41.0764 28.023 40.8441C28.3018 40.7089 28.604 40.6289 28.9132 40.6086C29.7684 40.5021 30.6302 40.4577 31.4919 40.4755C32.4889 40.4995 33.5558 40.589 34.411 40.0764C35.6153 39.3458 35.8923 37.6009 35.3316 36.2923Z" fill="black"/>
</g>
<path opacity="0.06" d="M21 57C21 57 23.4144 60.3964 28 58.3372C28 58.3305 25.1603 60.1591 21 57Z" fill="black"/>
<path opacity="0.06" d="M159.783 19.8308C159.788 20.1669 159.697 20.4974 159.519 20.784C159.377 20.9503 159.2 21.0834 159 21.1735C158.163 21.5818 157.216 21.7193 156.294 21.5666C155.372 21.4139 154.523 20.9786 153.866 20.3226C153.399 19.8352 153.053 19.2346 152.592 18.7537C152.131 18.2727 151.489 17.8527 150.827 17.905C150.265 17.9485 149.773 18.301 149.387 18.708C148.887 19.2424 148.52 19.8836 148.313 20.5816C148.17 21.0778 148.093 21.637 147.68 21.9656C147.268 22.2942 146.756 22.2724 146.262 22.255C145.625 22.2333 144.963 22.205 144.403 21.9069C143.342 21.3454 142.985 20.0528 142.592 18.9321C141.931 17.0432 140.444 13.4744 138.131 13.0936C137.028 12.913 135.685 13.4896 134.823 14.1076C133.52 15.0412 132.558 15.6462 130.871 15.6309C130.473 15.6385 130.078 15.5766 129.702 15.4481C128.732 15.0717 128.213 14.0315 128.057 13C127.997 13.4727 127.984 13.9502 128.019 14.4254C128.112 15.5526 128.632 16.7712 129.702 17.1869C130.078 17.3153 130.473 17.3772 130.871 17.3696C132.558 17.3958 133.517 16.7908 134.823 15.8572C135.69 15.2392 137.028 14.6604 138.131 14.8432C140.436 15.2131 141.935 18.7819 142.584 20.6686C142.976 21.7915 143.333 23.0841 144.394 23.6456C144.954 23.9415 145.616 23.972 146.253 23.9937C146.747 24.0112 147.29 24.0133 147.671 23.7043C148.053 23.3953 148.161 22.8143 148.304 22.3203C148.51 21.6221 148.878 20.9807 149.378 20.4467C149.764 20.0397 150.261 19.6872 150.818 19.6437C151.498 19.5915 152.142 19.9984 152.583 20.4924C153.024 20.9864 153.39 21.5804 153.857 22.0614C154.514 22.7173 155.364 23.1526 156.285 23.3053C157.207 23.458 158.154 23.3205 158.992 22.9122C159.191 22.8214 159.368 22.6884 159.51 22.5227C159.688 22.2355 159.78 21.9041 159.774 21.5674C159.947 19.7344 160.021 17.8937 159.995 16.0531C159.977 17.3131 159.883 18.573 159.783 19.8308Z" fill="black"/>
<path d="M7.90362 113.148C7.90362 113.148 8.26646 112.766 7.58414 112.615V111.987H7.9949C7.99401 111.229 7.71771 110.494 7.21221 109.905C6.7067 109.316 6.00262 108.909 5.21769 108.752V107.99H5.32494V107H2.68466V107.99H2.75996V108.76C1.9824 108.925 1.28744 109.335 0.789643 109.923C0.291846 110.512 0.0209287 111.243 0.0215514 111.996H0.384392V112.598C0.384392 112.598 -0.48049 112.984 0.384392 113.676C1.24927 114.369 1.11463 114.869 1.11463 114.869C1.11463 114.869 0.751795 116.163 0.0238339 116.332V128.332C0.0235341 128.682 0.0962679 129.029 0.23788 129.353C0.379493 129.676 0.587208 129.971 0.849151 130.218C1.11109 130.466 1.42213 130.663 1.76449 130.797C2.10684 130.931 2.47381 131 2.8444 131H5.07392C5.82259 131 6.54059 130.719 7.06998 130.218C7.59936 129.718 7.89677 129.039 7.89677 128.332V116.332C7.89677 116.332 6.62113 115.428 6.84933 114.869C7.15548 114.272 7.50786 113.696 7.90362 113.148Z" fill="white"/>
<defs>
<linearGradient id="paint0_linear_121_2" x1="109.49" y1="133.004" x2="109.49" y2="-0.00825322" gradientUnits="userSpaceOnUse">
<stop stop-color="#808080" stop-opacity="0.25"/>
<stop offset="0.54" stop-color="#808080" stop-opacity="0.12"/>
<stop offset="1" stop-color="#808080" stop-opacity="0.1"/>
</linearGradient>
</defs>
</svg>
