<svg width="252" height="167" viewBox="0 0 252 167" fill="none" xmlns="http://www.w3.org/2000/svg">
<path opacity="0.1" d="M137 167C200.513 167 252 163.642 252 159.5C252 155.358 200.513 152 137 152C73.4873 152 22 155.358 22 159.5C22 163.642 73.4873 167 137 167Z" fill="#F9C22D"/>
<path opacity="0.1" d="M234 153.694C234.001 154.287 233.948 154.878 233.84 155.457C233.82 155.566 233.798 155.684 233.776 155.777C233.708 155.777 233.642 155.777 233.576 155.777C233.08 155.747 232.588 155.671 232.104 155.55C231.674 155.701 231.236 155.815 230.791 155.891C230.451 155.949 230.107 155.986 229.763 156H229.415C229.003 156 228.591 155.969 228.183 155.907C227.522 155.807 226.873 155.624 226.248 155.362C225.906 155.491 225.557 155.597 225.204 155.68C225.188 155.607 225.174 155.534 225.16 155.453C225.052 154.873 224.999 154.282 225 153.69C225 149.994 227.014 147 229.501 147C231.988 147 234 150.003 234 153.694Z" fill="black"/>
<path d="M245 142.355C245.002 140.805 244.625 139.276 243.9 137.893L237.958 139.676L243.174 136.717C242.3 135.498 241.152 134.483 239.817 133.749C238.481 133.015 236.992 132.579 235.458 132.474C235.214 132.117 234.946 131.776 234.657 131.452L226.124 134.014L233.123 130.046C231.784 129.056 230.213 128.398 228.548 128.133C226.883 127.867 225.176 128.001 223.577 128.523C221.979 129.045 220.539 129.939 219.384 131.126C218.229 132.312 217.394 133.755 216.955 135.327L224.264 143.444L216.335 137.911C214.325 139.284 212.893 141.308 212.301 143.615C211.709 145.922 211.996 148.357 213.111 150.476C214.225 152.595 216.092 154.258 218.371 155.16C220.65 156.062 223.19 156.144 225.526 155.391C227.64 156.139 229.949 156.199 232.101 155.565C233.602 155.885 235.158 155.876 236.655 155.539C238.152 155.202 239.551 154.545 240.75 153.617C241.948 152.689 242.916 151.513 243.581 150.177C244.246 148.84 244.591 147.377 244.591 145.894C244.591 145.677 244.591 145.461 244.569 145.244C244.86 144.307 245.005 143.333 245 142.355Z" fill="#016052"/>
<path opacity="0.1" d="M244 144.264C240.942 143.692 237.806 143.653 234.734 144.148C231.256 144.714 227.702 145.958 224.301 145.047C222.305 144.514 220.58 143.278 218.63 142.593C216.749 141.946 214.722 141.826 212.776 142.246C212.034 143.992 211.818 145.911 212.155 147.774C212.492 149.637 213.366 151.365 214.675 152.751C215.983 154.138 217.67 155.125 219.534 155.594C221.397 156.063 223.358 155.994 225.183 155.395C227.243 156.138 229.493 156.198 231.591 155.567C233.054 155.886 234.57 155.877 236.029 155.542C237.488 155.207 238.852 154.554 240.02 153.631C241.188 152.709 242.131 151.54 242.779 150.211C243.427 148.883 243.763 147.428 243.764 145.954C243.764 145.739 243.764 145.523 243.742 145.308C243.847 144.965 243.934 144.616 244 144.264Z" fill="#141516"/>
<path d="M51.4696 151.53L55.6304 149.032C55.0677 148.053 54.3484 147.177 53.5022 146.44L45.6522 148.934L51.8043 145.252C50.2814 144.403 48.5675 143.972 46.8313 144.001C45.0951 144.031 43.3964 144.521 41.9025 145.422C40.4086 146.323 39.1709 147.605 38.3113 149.141C37.4517 150.677 36.9998 152.414 37 154.182C37 159.805 41.4761 160 47 160C52.5239 160 57 159.805 57 154.182C57.0019 152.759 56.7093 151.352 56.1413 150.052L51.4696 151.53Z" fill="#016052"/>
<path opacity="0.1" d="M52.6187 157.148C52.1734 156.718 51.6759 156.342 51.1368 156.027C50.3762 155.542 49.5915 155.048 48.6954 154.882C47.9086 154.737 47.0977 154.859 46.2912 154.817C44.8997 154.734 43.5899 154.157 42.6171 153.196C42.0467 152.629 41.5964 151.935 40.9101 151.496C40.1692 151.029 39.2294 150.928 38.3507 151.044C38.0961 151.081 37.8437 151.131 37.5945 151.193C37.2001 152.245 36.9989 153.356 37 154.474C37 159.815 41.5003 160 47.054 160C49.7489 160 52.1947 159.956 54 159.3L53.6984 158.758C53.4107 158.179 53.0479 157.638 52.6187 157.148Z" fill="black"/>
<path d="M71.9243 129.851C71.5993 130.131 71.3489 130.484 71.1949 130.881C70.8147 132.047 71.8776 133.19 71.9799 134.411C72.06 135.38 71.5352 136.283 71.2372 137.213C70.9009 138.368 70.9226 139.596 71.2997 140.739C71.6767 141.882 72.392 142.888 73.3543 143.631C73.5591 143.801 73.801 143.924 74.0614 143.989C74.2763 144.014 74.4943 143.996 74.7019 143.936C74.9095 143.876 75.1025 143.775 75.269 143.64C75.7854 143.271 76.1792 142.76 76.4009 142.173C76.5854 141.595 76.685 140.995 76.6967 140.389L76.8546 138.054C77.0191 135.615 77.1681 133.101 76.5633 130.706C76.3653 129.921 75.9984 128.115 75.0733 128.006C74.1482 127.897 72.5381 129.261 71.9243 129.851Z" fill="#3F3D56"/>
<path d="M87.2248 119.054C86.0842 122.851 85.2574 126.727 84.7519 130.646C84.6788 131.198 84.6035 131.778 84.2518 132.224C83.5508 133.118 82.1466 133.061 80.9821 132.916C80.7026 132.902 80.4301 132.828 80.1852 132.7C79.7468 132.418 79.6509 131.856 79.5984 131.356C78.8007 123.985 78.2679 116.594 78 109.184C77.9886 108.9 87.7477 108.874 88.5834 109.617C89.4191 110.359 88.7706 113.136 88.5834 114.082C88.2774 115.766 87.7248 117.407 87.2248 119.054Z" fill="#FBBEBE"/>
<path opacity="0.05" d="M87.2248 119.054C86.0842 122.851 85.2574 126.727 84.7519 130.646C84.6788 131.198 84.6035 131.778 84.2518 132.224C83.5508 133.118 82.1466 133.061 80.9821 132.916C80.7026 132.902 80.4301 132.828 80.1852 132.7C79.7468 132.418 79.6509 131.856 79.5984 131.356C78.8007 123.985 78.2679 116.594 78 109.184C77.9886 108.9 87.7477 108.874 88.5834 109.617C89.4191 110.359 88.7706 113.136 88.5834 114.082C88.2774 115.766 87.7248 117.407 87.2248 119.054Z" fill="black"/>
<path d="M68 108.067L71.7798 116.391C73.0376 119.159 74.3041 121.958 74.9046 124.938C75.1455 126.183 75.2994 127.444 75.3653 128.71C75.4565 129.795 75.4228 130.888 75.2649 131.966C75.1273 132.766 74.874 133.544 74.7626 134.349C74.3259 137.556 76.1405 140.574 77.383 143.558C78.4565 146.121 79.1395 148.832 79.4093 151.598C79.5229 152.776 79.5862 154.027 80.2588 155C81.4881 154.63 82.6891 154.311 83.9709 154.456C84.2002 152.573 83.0123 150.839 82.5756 148.989C81.7742 145.6 83.5451 142.039 82.9424 138.608C82.6149 136.75 81.5995 135 81.6825 133.116C81.8375 129.679 82.4817 126.206 81.8266 122.839C81.0885 119.033 78.9661 115.571 78.4966 111.723C78.1363 108.767 78.715 105.498 77.0707 103.015C73.4787 102.802 69.7644 104.926 68 108.067Z" fill="#FBBEBE"/>
<path d="M80.4686 160.877C80.0999 160.891 79.6694 160.877 79.4413 160.566C79.33 160.385 79.266 160.176 79.2559 159.96C79.0813 158.592 78.9958 157.213 79.0002 155.832C79.0002 155.328 79.0215 154.792 79.2857 154.377C79.4797 154.124 79.7007 153.895 79.9443 153.696C80.5091 153.14 80.9204 152.334 81.6493 152.078C81.9687 151.979 82.3072 151.974 82.6289 152.064C82.9506 152.154 83.2433 152.335 83.4758 152.589C83.9357 153.111 84.2205 153.78 84.2857 154.493C84.3923 155.337 84.3028 156.256 84.7226 156.989C84.8889 157.273 85.1212 157.505 85.3087 157.772C85.9481 158.68 86.5214 160.457 85.2022 160.825C83.804 161.213 81.92 160.827 80.4686 160.877Z" fill="#3F3D56"/>
<path d="M83.6182 58.4825C84.3876 56.9716 83.9282 55.0271 82.829 53.7441C81.7299 52.4612 80.1229 51.7459 78.483 51.3593C76.2847 50.8363 73.9281 50.8407 71.8243 51.6632C70.147 52.3181 68.7028 53.4513 67.1552 54.3766C64.4202 56.0136 61.3591 57.0065 58.1971 57.2823C54.6798 57.584 50.7515 57.1146 48.0322 59.3922C43.0508 63.5629 46.5197 72.9614 41.8769 77.5121C40.6239 78.7391 38.951 79.403 37.5155 80.402C36.08 81.4011 34.7962 82.9992 35.027 84.7515C35.1369 85.5942 35.5898 86.3541 36.113 87.0179C38.3596 89.8721 42.1319 91.3674 45.6998 90.9226C49.2676 90.4778 52.5343 88.1489 54.2731 84.9438C54.7128 84.1414 55.0689 83.263 55.7614 82.6796C57.1485 81.5151 59.1841 81.9867 60.9823 81.9308C64.981 81.8057 68.6126 78.3212 68.9622 74.2667C69.1116 72.5345 68.8215 70.5185 70.0459 69.3026C71.033 68.3191 72.5762 68.3281 73.9259 68.0263C76.4056 67.4743 78.2104 65.6504 79.3425 63.4243C79.8613 62.4006 79.8086 61.2563 80.578 60.4069C81.3979 59.4727 82.8862 59.9174 83.6182 58.4825Z" fill="#36335E"/>
<g opacity="0.1">
<path opacity="0.1" d="M54.981 58.3642C56.4364 58.2401 57.8751 57.9659 59.2741 57.5459C58.8793 57.6007 58.4844 57.6468 58.0873 57.6797C55.3364 57.9101 52.3266 57.6797 49.8477 58.6472C51.5368 58.4739 53.3072 58.5046 54.981 58.3642Z" fill="black"/>
<path opacity="0.1" d="M52.5336 83.2914C51.8426 83.8617 51.4784 84.7261 51.0484 85.5136C49.719 87.9101 47.59 89.7634 45.0332 90.75C45.2284 90.7369 45.4237 90.7193 45.6189 90.6952C49.1794 90.2565 52.4392 87.975 54.1745 84.8292C54.6132 84.0416 54.9664 83.1773 55.6597 82.6069L55.7781 82.5148C54.5738 82.4863 53.4198 82.5586 52.5336 83.2914Z" fill="black"/>
<path opacity="0.1" d="M82.6693 54.209C81.5725 52.9498 79.9579 52.25 78.3323 51.8683C76.1386 51.355 73.7869 51.3616 71.6853 52.1689L71.5449 52.2259C72.7813 52.1555 74.0214 52.2657 75.226 52.5528C76.8516 52.9345 78.4683 53.6343 79.563 54.8957C80.6577 56.1571 81.1184 58.0634 80.3506 59.5464C79.6201 60.9548 78.1349 60.516 77.2991 61.4264C76.5313 62.2578 76.5839 63.3832 76.0662 64.388C75.0944 66.268 73.6224 67.8519 71.6568 68.6043C72.3434 68.442 73.0805 68.3696 73.765 68.2204C76.2395 67.6764 78.0406 65.8885 79.1703 63.7035C79.6903 62.6988 79.6376 61.5734 80.4032 60.742C81.2412 59.8316 82.7264 60.2681 83.4547 58.8619C84.2225 57.3834 83.764 55.4748 82.6693 54.209Z" fill="black"/>
<path opacity="0.1" d="M70.6604 68.9067C69.3134 69.2006 67.7734 69.194 66.7885 70.1571C65.5666 71.3527 65.8561 73.3314 65.7069 75.0316C65.4459 78.0041 63.3553 80.6651 60.6504 81.8738H60.85C64.8404 81.751 68.4623 78.3287 68.8111 74.3515C68.9625 72.6492 68.6729 70.6704 69.8948 69.477C70.1748 69.2099 70.5041 68.9998 70.8644 68.8584L70.6604 68.9067Z" fill="black"/>
</g>
<path d="M83.861 78.2006C83.6752 78.5169 83.2925 78.6632 82.9367 78.7901C79.2528 80.094 75.3764 81.4216 71.491 80.8729C71.3455 80.2855 71.2023 79.696 71.0591 79.1086C70.8517 78.2565 70.6428 77.4045 70.4324 76.5524C70.3339 76.1457 70.2332 75.7348 70.1526 75.3216C70.0138 74.6694 69.9694 74.0018 70.0206 73.3378C70.0443 73.0972 70.0892 72.8589 70.1549 72.6256C70.2698 72.2012 70.4623 71.7998 70.7234 71.44C70.7681 71.382 70.8151 71.3239 70.8644 71.2679C71.0857 71.0113 71.3542 70.7962 71.6566 70.6332C72.3169 70.2846 73.2233 70.1361 73.4896 69.4605C73.5927 69.1072 73.5825 68.7323 73.4606 68.3847C73.2367 67.524 72.8316 66.715 72.581 65.8629C72.2632 64.7871 72.7421 64.8538 73.8231 64.5934C75.7703 64.1222 77.8069 63.7844 79.8056 64.1631C79.7116 65.112 79.6198 66.0846 79.8682 67.0098C80.1167 67.935 80.7814 68.8129 81.737 69.0689C81.878 69.1076 82.028 69.1313 82.1847 69.1636C82.3922 69.1957 82.5891 69.2737 82.7599 69.3917C82.8776 69.4852 82.9711 69.6038 83.0329 69.7381C83.1302 69.9652 83.1942 70.2041 83.2231 70.4481C83.5738 72.7059 83.8267 74.9745 83.9819 77.2538V77.3399C84.0279 77.632 83.9859 77.9307 83.861 78.2006Z" fill="#FBBEBE"/>
<path d="M65.08 75.1517C64.2774 76.4047 64.007 77.9285 63.7623 79.4082L62.2043 88.6788C61.9897 89.9472 61.7987 91.3411 62.4318 92.4531C62.6464 92.8296 62.9468 93.1555 63.1035 93.5541C63.2219 93.9551 63.2995 94.3676 63.3353 94.785C63.7001 96.91 65.7367 98.3435 67.7798 98.8588C68.5181 99.046 69.3808 99.1186 69.9624 98.6144C70.6062 98.0661 70.6062 97.0223 70.2263 96.2692C69.8465 95.5161 69.1533 94.9832 68.4816 94.479L66.2561 92.7966L67.5437 82.6672C67.6382 81.9318 67.973 80.9783 68.6983 81.0598C69.3593 81.1324 69.8679 82.1211 70.456 81.8018C70.6402 81.6739 70.77 81.4785 70.8187 81.2557C71.0762 80.4256 71.0054 79.5315 70.9324 78.6617L70.6663 75.5216C70.5783 74.5021 70.8337 73.738 70.9539 72.7801C71.0934 71.6637 70.368 72.0028 69.4731 72.2428C67.7541 72.7096 66.0737 73.5971 65.08 75.1517Z" fill="#FBBEBE"/>
<path d="M93.8765 90.2733C93.7001 90.561 93.4388 90.7908 93.1264 90.9331C91.2519 91.9575 89.0475 92.2581 86.9542 91.7746C86.4717 91.6372 85.9817 91.5263 85.4863 91.4425C84.6946 91.3482 83.8889 91.5008 83.0902 91.4425C81.4695 91.3236 80.0457 90.3429 78.9229 89.1984C78.2468 88.5251 77.6333 87.4233 78.263 86.7006C78.4389 86.5263 78.6575 86.3978 78.8983 86.3272C79.1391 86.2566 79.3944 86.2461 79.6406 86.2967C80.1308 86.4025 80.6036 86.5732 81.0459 86.8039C82.5953 87.5001 84.253 87.943 85.9517 88.1144C87.1093 88.2311 88.5817 88.0404 88.9822 86.9744C89.1767 86.456 89.0401 85.8815 88.9035 85.3452C88.53 83.876 88.1565 82.4061 87.783 80.9355C87.7573 80.8071 87.7104 80.6835 87.6441 80.5697C87.6251 80.5389 87.6026 80.5103 87.5769 80.4844C87.4293 80.3651 87.2507 80.2875 87.0607 80.26C86.1971 80.0535 85.3335 79.7191 84.7154 79.102C84.3103 78.6638 83.9874 78.1603 83.7616 77.6141C83.6967 77.4772 83.6365 77.3381 83.574 77.199C83.0994 76.1263 82.5993 75.0266 82.2127 73.9001C81.9428 73.1386 81.7437 72.3553 81.6177 71.5594C81.5158 70.8705 81.4603 70.5541 81.8492 70.2489C81.9535 70.1726 82.0643 70.105 82.1803 70.0469C82.3586 69.9549 82.56 69.8629 82.773 69.7754L82.979 69.6923C83.6123 69.4468 84.263 69.2458 84.9261 69.0909C86.5328 68.7296 88.2483 69.4836 89.3503 70.6753C90.4524 71.8669 91.0242 73.4266 91.39 74.9862C91.7558 76.5459 91.9433 78.1437 92.4017 79.6787C92.58 80.2802 92.8023 80.8726 92.9551 81.474C93.119 82.1895 93.2358 82.9143 93.3047 83.6441C93.5223 85.5038 93.7391 87.3634 93.9552 89.223C94.0351 89.5731 94.0077 89.9381 93.8765 90.2733Z" fill="#FBBEBE"/>
<path d="M70.9971 89.5964C71.4262 92.3358 70.1927 95.0301 69 97.5398C69.6757 98.0336 70.5016 98.2783 71.3082 98.4909C76.7067 99.9111 82.3188 100.334 87.8689 99.7382C88.0019 98.8107 88.1263 97.8275 87.7466 96.973C87.5106 96.4427 87.1031 96.0112 86.8435 95.4917C86.4145 94.6329 86.4574 93.6346 86.5045 92.6814L86.8885 84.5598C84.2264 83.3318 81.1395 84.4826 78.2113 84.6479C76.6947 84.7337 75.1588 84.5491 73.6636 84.8175C72.887 84.957 70.4458 85.3413 70.079 86.1421C69.7122 86.9429 70.8663 88.7248 70.9971 89.5964Z" fill="#FBBEBE"/>
<path opacity="0.05" d="M70.9971 89.5964C71.4262 92.3358 70.1927 95.0301 69 97.5398C69.6757 98.0336 70.5016 98.2783 71.3082 98.4909C76.7067 99.9111 82.3188 100.334 87.8689 99.7382C88.0019 98.8107 88.1263 97.8275 87.7466 96.973C87.5106 96.4427 87.1031 96.0112 86.8435 95.4917C86.4145 94.6329 86.4574 93.6346 86.5045 92.6814L86.8885 84.5598C84.2264 83.3318 81.1395 84.4826 78.2113 84.6479C76.6947 84.7337 75.1588 84.5491 73.6636 84.8175C72.887 84.957 70.4458 85.3413 70.079 86.1421C69.7122 86.9429 70.8663 88.7248 70.9971 89.5964Z" fill="black"/>
<path d="M77.8165 96.7744C74.9426 96.1348 72.1179 95.0773 69.1842 95.0042C69.0369 94.9882 68.8885 95.0183 68.7569 95.091C68.6137 95.2176 68.5181 95.3952 68.4877 95.5912C68.1843 96.7105 67.9129 97.8381 67.6736 98.9741C66.8788 102.75 66.4877 106.921 68.2356 110.31C68.2185 109.209 68.8659 108.179 69.7312 107.569C70.5966 106.959 71.6329 106.713 72.6585 106.612C73.6841 106.512 74.7802 106.553 75.7353 107.003C76.4028 107.327 76.9787 107.833 77.4051 108.471C77.8316 109.108 78.0935 109.855 78.1648 110.635L88.2606 110.984C88.3197 111.003 88.3822 111.005 88.4423 110.991C88.5025 110.977 88.5585 110.947 88.6052 110.905C88.6519 110.862 88.6878 110.807 88.7097 110.746C88.7316 110.684 88.7388 110.618 88.7307 110.552C89.1029 107.09 89.0892 103.593 88.6901 100.134C88.579 99.1682 88.564 97.8274 87.547 97.4642C86.3333 97.0302 84.4146 97.5373 83.1176 97.4779C81.3356 97.3979 79.5627 97.1626 77.8165 96.7744Z" fill="#4A4A4A"/>
<path d="M86.9999 81.2362L86.9685 85.7043L76.9485 86.0426C75.1101 86.1064 73.257 86.1702 71.4647 86.5851C70.9491 86.7043 70.4397 86.8532 69.9324 87C69.4041 85.0362 68.8843 82.9787 69.0226 80.9766C69.0609 80.4365 69.1536 79.9018 69.2993 79.3809C69.618 78.2574 70.2154 77.1979 70.534 76.0872C70.6624 75.6548 70.7329 75.2068 70.7436 74.7553C70.7199 74.3044 70.6496 73.8573 70.534 73.4213C70.4421 73.0637 70.3984 72.6951 70.404 72.3255L71.1985 72.0766C71.2216 72.1723 71.2404 72.266 71.2572 72.3638C71.2908 72.566 71.318 72.7723 71.3369 72.9787C71.3817 73.4901 71.3957 74.0039 71.3788 74.517C71.3515 75.5426 71.2153 76.6851 71.8463 77.4957C72.6659 78.5362 74.2422 78.3745 75.5293 78.1149L78.9001 77.4319C79.965 77.2191 81.1535 76.917 81.709 75.9702C81.946 75.5104 82.0711 74.9997 82.0738 74.4809V74.3787C82.1239 73.2486 82.0131 72.1171 81.7447 71.0192C81.6629 70.6745 81.5623 70.334 81.4491 70H81.7866C81.981 70.0317 82.1654 70.1089 82.3253 70.2255C82.4356 70.318 82.5232 70.4353 82.5811 70.5681L82.7676 70.4894C83.5114 73.5752 84.7371 76.5203 86.3983 79.2128C86.6119 79.5209 86.7813 79.8584 86.9014 80.2149C86.9513 80.4082 86.9794 80.6066 86.9852 80.8064C87.002 80.9319 86.9999 81.083 86.9999 81.2362Z" fill="#E86559"/>
<path d="M76.5 67C80.0899 67 83 64.0899 83 60.5C83 56.9101 80.0899 54 76.5 54C72.9101 54 70 56.9101 70 60.5C70 64.0899 72.9101 67 76.5 67Z" fill="#FBBEBE"/>
<path d="M65.2671 75.1924C64.4157 76.4432 64.1289 77.9644 63.8694 79.4416L62.2167 88.6964C61.9891 89.9626 61.7865 91.3541 62.458 92.4642C62.6856 92.8402 63.0043 93.1655 63.1705 93.5634C63.2961 93.9637 63.3785 94.3755 63.4164 94.7922C63.8034 96.9136 65.9637 98.3447 68.1308 98.8591C68.9139 99.0459 69.829 99.1184 70.446 98.615C71.1289 98.0677 71.1289 97.0257 70.726 96.2739C70.323 95.5221 69.5877 94.9901 68.8752 94.4867L66.5146 92.8072L67.8804 82.6951C67.9715 81.9675 66.3211 73.6404 65.2671 75.1924Z" fill="#FBBEBE"/>
<path d="M91.3935 75.2141C91.7594 76.7548 91.9469 78.3333 92.4053 79.8497C92.5836 80.4461 92.8059 81.0291 92.9587 81.6233C93.1227 82.3293 93.2395 83.0446 93.3083 83.7648L93.959 89.2761C94.0339 89.6165 94.0058 89.9703 93.8779 90.2959C93.7009 90.5796 93.4397 90.8064 93.1277 90.9477C91.2522 91.9572 89.0486 92.254 86.955 91.7791C86.4731 91.6412 85.9828 91.5316 85.487 91.4509C84.6952 91.3556 83.8894 91.5086 83.0906 91.4509C81.4699 91.3334 80.0459 90.3669 78.9229 89.2451C78.2469 88.58 77.6333 87.4893 78.2631 86.7754C78.439 86.6032 78.6575 86.4763 78.8984 86.4065C79.1392 86.3367 79.3946 86.3264 79.6407 86.3764C80.131 86.4817 80.6039 86.651 81.0461 86.8796C82.5962 87.5658 84.2539 88.0025 85.9524 88.1721C87.1101 88.2896 88.5827 88.1011 88.9832 87.0459C89.1777 86.5338 89.0411 85.9662 88.9045 85.4364L87.7839 81.0801C87.7376 80.9293 91.0277 73.6755 91.3935 75.2141Z" fill="#FBBEBE"/>
<path d="M72.6647 61.9751C72.3875 60.9911 71.9984 59.7605 72.7787 59.0931C73.0591 58.879 73.3969 58.7512 73.7502 58.7254C75.502 58.5129 77.314 59.5331 78.9906 58.989C79.5254 58.8162 79.9982 58.494 80.3519 58.0614C80.7056 57.6288 80.9251 57.1042 80.984 56.551C81.0429 55.9977 80.9385 55.4395 80.6836 54.9436C80.4287 54.4477 80.0341 54.0353 79.5473 53.7562C78.8144 53.3312 77.9395 53.2483 77.0948 53.1739C74.8701 52.972 72.5508 52.7849 70.4701 53.599C68.3894 54.413 66.6355 56.5086 67.0654 58.6786C67.2653 59.7137 67.9123 60.6042 68.57 61.4289C69.0751 62.0559 71.1021 65.0421 71.9167 64.9996C73.0645 64.9358 72.8453 62.6149 72.6647 61.9751Z" fill="#36335E"/>
<path opacity="0.1" d="M79.5447 54.1941C79.4203 54.1196 79.2907 54.0547 79.1571 54C79.5352 54.3555 79.8166 54.8077 79.9731 55.3112C80.1296 55.8148 80.1558 56.3521 80.049 56.8694C79.9421 57.3868 79.7061 57.866 79.3644 58.2591C79.0227 58.6522 78.5873 58.9454 78.1019 59.1095C76.4223 59.6807 74.6069 58.6097 72.8519 58.8328C72.498 58.8599 72.1595 58.9941 71.8786 59.2188C71.0969 59.9194 71.4867 61.2113 71.7645 62.2443C71.9453 62.9137 72.165 65.3524 71.0194 65.4193H71C71.3553 65.7786 71.6762 66.0128 71.9044 65.9995C73.05 65.9325 72.8304 63.496 72.6495 62.8244C72.3717 61.7914 71.9819 60.4995 72.7636 59.7989C73.0446 59.5742 73.383 59.44 73.737 59.4129C75.492 59.1898 77.3073 60.2608 78.987 59.6896C79.5227 59.5082 79.9963 59.17 80.3507 58.7159C80.7051 58.2617 80.925 57.711 80.984 57.1303C81.0429 56.5495 80.9384 55.9634 80.683 55.4428C80.4276 54.9222 80.0323 54.4893 79.5447 54.1963V54.1941Z" fill="black"/>
<path d="M79.1241 9.41455L75.7615 11.5529L77.8024 7.83037C77.224 7.36729 76.508 7.11109 75.768 7.10239H75.7138C75.4802 7.10582 75.2467 7.08836 75.0162 7.05024L73.8765 7.77387L74.3662 6.88291C73.5577 6.60081 72.8596 6.06808 72.3729 5.36175L70.332 6.6656L71.6211 4.3165C70.4273 2.8801 68.8197 2 67.0517 2C64.9306 2 63.0413 3.26473 61.8215 5.23572C61.4608 5.82753 60.9496 6.3125 60.3405 6.6409C59.7313 6.9693 59.046 7.12932 58.3549 7.10456H58.2401C55.898 7.10456 54 9.76659 54 13.0523C54 16.338 55.898 19 58.2401 19C58.7553 18.9976 59.2623 18.8701 59.7177 18.6284C60.5145 18.2395 61.3861 18.029 62.272 18.0118C63.1579 17.9945 64.037 18.1708 64.8482 18.5284C65.5346 18.8364 66.2781 18.9956 67.03 18.9956C67.782 18.9956 68.5254 18.8364 69.2118 18.5284C70.0173 18.1782 70.8885 18.0058 71.7663 18.0231C72.644 18.0403 73.5078 18.2468 74.299 18.6284C74.7498 18.865 75.2506 18.9895 75.7593 18.9913C78.1014 18.9913 79.9994 16.3271 79.9994 13.0436C80.0155 11.7795 79.7145 10.5315 79.1241 9.41455Z" fill="#F2F2F2"/>
<path opacity="0.03" d="M73 18.1551C71.7637 17.9287 70.4856 18.0628 69.3285 18.5405C68.6335 18.8399 67.881 18.9947 67.1199 18.9947C66.3589 18.9947 65.6063 18.8399 64.9113 18.5405C64.0899 18.1927 63.2 18.0215 62.3032 18.0387C61.4065 18.0559 60.5243 18.261 59.7178 18.64C59.2565 18.8746 58.7433 18.9981 58.222 19C56.1165 19 54.3641 16.9522 54 14.2501C54.4198 13.953 54.777 13.5815 55.0528 13.1553C56.2875 11.2325 58.2 10 60.3472 10C62.4944 10 64.3828 11.2176 65.611 13.1193C65.9806 13.6912 66.4967 14.1615 67.1095 14.4846C67.7223 14.8077 68.4111 14.9727 69.1092 14.9638H69.164C70.8419 14.9638 72.2938 16.2619 73 18.1551Z" fill="black"/>
<path d="M195.569 57.9154L193.886 59.0477L194.908 57.0761C194.619 56.8315 194.261 56.6961 193.891 56.691H193.862C193.746 56.6931 193.63 56.6846 193.515 56.6656L192.934 57.053L193.18 56.5803C192.776 56.4316 192.426 56.1506 192.182 55.7779L191.16 56.4696L191.813 55.2267C191.541 54.8551 191.195 54.5522 190.799 54.34C190.404 54.1278 189.969 54.0117 189.526 54C188.465 54 187.519 54.6687 186.917 55.7133C186.736 56.0269 186.479 56.2837 186.174 56.4575C185.868 56.6314 185.525 56.7159 185.178 56.7025H185.122C183.95 56.7025 183 58.1138 183 59.8501C183 61.5865 183.95 63 185.122 63C185.379 62.9988 185.633 62.9316 185.861 62.804C186.259 62.5981 186.695 62.4865 187.139 62.4769C187.582 62.4674 188.022 62.5601 188.428 62.7487C188.77 62.9126 189.14 62.9983 189.515 63C189.889 62.9986 190.259 62.9154 190.602 62.7556C191.005 62.5702 191.441 62.4788 191.88 62.4875C192.319 62.4963 192.751 62.605 193.147 62.8063C193.372 62.9323 193.623 62.9988 193.878 63C195.049 63 195.999 61.5888 195.999 59.8501C196.012 59.177 195.864 58.5115 195.569 57.9154Z" fill="#F2F2F2"/>
<path opacity="0.03" d="M192 62.5283C191.413 62.4009 190.806 62.4757 190.257 62.7429C189.929 62.9084 189.574 62.9939 189.215 62.9939C188.856 62.9939 188.5 62.9084 188.172 62.7429C187.783 62.5503 187.361 62.4554 186.936 62.4648C186.511 62.4741 186.093 62.5875 185.71 62.7972C185.492 62.9287 185.249 62.9983 185.001 63C184.003 63 183.173 61.8608 183 60.3609C183.199 60.1961 183.368 59.9895 183.498 59.7524C184.084 58.684 184.991 58 186 58C187.009 58 187.914 58.6769 188.502 59.7311C188.677 60.0517 188.923 60.3153 189.215 60.496C189.508 60.6766 189.836 60.7682 190.17 60.7618H190.195C190.976 60.7547 191.666 61.4764 192 62.5283Z" fill="black"/>
<path d="M199.723 30.1066L202.437 31.8689L200.786 28.8022C201.254 28.4217 201.831 28.2111 202.428 28.2036H202.472C202.661 28.2064 202.849 28.1922 203.035 28.1611L203.957 28.7575L203.562 28.0249C204.213 27.7911 204.776 27.3535 205.171 26.7741L206.82 27.8417L205.778 25.9075C206.741 24.7237 208.04 24 209.468 24C211.183 24 212.707 25.0408 213.692 26.6646C213.983 27.1506 214.395 27.5489 214.885 27.8192C215.376 28.0895 215.927 28.2221 216.484 28.2036H216.576C218.467 28.2036 220 30.3969 220 33.1018C220 35.8066 218.471 38 216.576 38C216.16 37.9978 215.751 37.8928 215.384 37.694C214.74 37.3728 214.035 37.199 213.318 37.1847C212.602 37.1704 211.891 37.316 211.235 37.6114C210.681 37.8646 210.081 37.9955 209.474 37.9955C208.867 37.9955 208.267 37.8646 207.713 37.6114C207.063 37.3225 206.359 37.1802 205.651 37.1941C204.942 37.2079 204.244 37.3777 203.605 37.6918C203.24 37.8861 202.835 37.9887 202.424 37.9911C200.533 37.9911 199 35.7977 199 33.0929C198.993 32.0513 199.242 31.0245 199.723 30.1066Z" fill="#F2F2F2"/>
<path d="M124.723 30.1066L127.437 31.8689L125.786 28.8022C126.254 28.4217 126.831 28.2111 127.428 28.2036H127.472C127.661 28.2064 127.849 28.1922 128.035 28.1611L128.957 28.7575L128.562 28.0249C129.213 27.7911 129.776 27.3535 130.171 26.7741L131.82 27.8417L130.778 25.9075C131.741 24.7237 133.04 24 134.468 24C136.183 24 137.707 25.0408 138.692 26.6646C138.983 27.1506 139.395 27.5489 139.885 27.8192C140.376 28.0895 140.927 28.2221 141.484 28.2036H141.576C143.467 28.2036 145 30.3969 145 33.1018C145 35.8066 143.471 38 141.576 38C141.16 37.9978 140.751 37.8928 140.384 37.694C139.74 37.3728 139.035 37.199 138.318 37.1847C137.602 37.1704 136.891 37.316 136.235 37.6114C135.681 37.8646 135.081 37.9955 134.474 37.9955C133.867 37.9955 133.267 37.8646 132.713 37.6114C132.063 37.3225 131.359 37.1802 130.651 37.1941C129.942 37.2079 129.244 37.3777 128.605 37.6918C128.24 37.8861 127.835 37.9887 127.424 37.9911C125.533 37.9911 124 35.7977 124 33.0929C123.993 32.0513 124.242 31.0245 124.723 30.1066Z" fill="#F2F2F2"/>
<path d="M166.723 5.67039L169.437 7.30679L167.786 4.45916C168.254 4.1059 168.831 3.91035 169.428 3.90332H169.472C169.661 3.90599 169.849 3.8928 170.035 3.86391L170.957 4.41768L170.562 3.7374C171.213 3.52031 171.776 3.11396 172.171 2.57594L173.82 3.56733L172.778 1.77122C173.741 0.671983 175.04 0 176.468 0C178.183 0 179.707 0.966498 180.692 2.47432C180.983 2.92552 181.395 3.29542 181.885 3.54642C182.376 3.79742 182.927 3.92056 183.484 3.90332H183.576C185.467 3.90332 187 5.94001 187 8.45166C187 10.9633 185.471 13 183.576 13C183.16 12.9979 182.751 12.9005 182.384 12.7159C181.74 12.4176 181.035 12.2562 180.318 12.243C179.602 12.2297 178.891 12.3649 178.235 12.6391C177.681 12.8743 177.081 12.9958 176.474 12.9958C175.867 12.9958 175.267 12.8743 174.713 12.6391C174.063 12.3709 173.359 12.2387 172.651 12.2516C171.942 12.2645 171.244 12.4221 170.605 12.7138C170.24 12.8942 169.835 12.9895 169.424 12.9917C167.533 12.9917 166 10.955 166 8.44336C165.993 7.47618 166.242 6.52278 166.723 5.67039Z" fill="#F2F2F2"/>
<path opacity="0.03" d="M205 37.2488C205.977 37.0465 206.988 37.1658 207.902 37.5915C208.45 37.8577 209.044 37.9953 209.644 37.9953C210.244 37.9953 210.838 37.8577 211.386 37.5915C212.035 37.2822 212.738 37.1299 213.446 37.1453C214.155 37.1607 214.852 37.3434 215.489 37.6808C215.852 37.889 216.257 37.9985 216.668 38C218.329 38 219.711 36.1808 220 33.7746C219.667 33.5122 219.384 33.1812 219.169 32.8005C218.195 31.0962 216.685 30 214.992 30C213.299 30 211.807 31.0822 210.833 32.77C210.542 33.2789 210.135 33.6975 209.651 33.9854C209.168 34.2733 208.624 34.4206 208.073 34.4131H208.03C206.704 34.4155 205.557 35.5681 205 37.2488Z" fill="black"/>
<path d="M234 153.511C234.001 154.086 233.948 154.66 233.84 155.223C233.82 155.328 233.798 155.443 233.776 155.534C233.209 158.046 231.608 159.883 229.697 160C229.633 160 229.569 160 229.497 160C227.476 160 225.768 158.077 225.204 155.428C225.188 155.357 225.174 155.287 225.16 155.207C225.052 154.644 224.999 154.071 225 153.496C225 149.907 227.013 147 229.497 147C231.981 147 234 149.927 234 153.511Z" fill="#3F3D56"/>
</svg>
