<svg width="233" height="200" viewBox="0 0 233 200" fill="none" xmlns="http://www.w3.org/2000/svg">
<path d="M217.609 175.399C217.609 175.399 183.639 159.75 195.573 148.898C207.506 138.047 217.609 175.399 217.609 175.399Z" fill="#0A3D40"/>
<path d="M205.635 174.498L206.29 183.086L206.3 183.234C206.3 184.575 206.368 185.915 206.503 187.249C207.393 196.009 211.216 200 215.683 200C220.151 200 223.807 196.009 224.697 187.249C224.833 185.915 224.9 184.575 224.9 183.234L224.905 183.114L224.907 183.086L225.565 174.498H205.635Z" fill="#84848D"/>
<path d="M224.906 183.085L224.904 183.114L224.899 183.233C224.899 184.574 224.832 185.914 224.696 187.249H206.502C206.367 185.914 206.299 184.574 206.299 183.233L206.289 183.085H224.906Z" fill="black"/>
<path d="M25.6527 182.872C25.6527 182.872 13.0212 177.054 17.4586 173.018C21.8961 168.983 25.6527 182.872 25.6527 182.872Z" fill="#0A3D40"/>
<path d="M25.7101 184.003C25.7101 184.003 30.727 181.841 28.9645 180.342C27.2021 178.842 25.7101 184.003 25.7101 184.003Z" fill="#0A3D40"/>
<path d="M17.2891 182.256L17.745 188.231L17.7523 188.334C17.7518 189.267 17.799 190.2 17.8934 191.128C18.5122 197.222 21.172 200 24.2806 200C27.3891 200 29.9331 197.222 30.5519 191.128C30.6464 190.2 30.6935 189.267 30.6931 188.334L30.6967 188.251L30.6985 188.231L31.1563 182.256L17.2891 182.256Z" fill="#707070"/>
<path d="M158.318 95.7193C158.792 95.3916 159.165 94.9377 159.394 94.409C159.623 93.8802 159.7 93.2978 159.615 92.7278C159.53 92.1577 159.287 91.6229 158.914 91.184C158.54 90.745 158.052 90.4196 157.503 90.2444L150.431 87.9873L146.545 91.3572L155.124 95.9069C155.622 96.1713 156.184 96.2937 156.747 96.2606C157.311 96.2275 157.854 96.0403 158.318 95.7193Z" fill="#FFB9B9"/>
<path d="M146.425 93.5569L151.087 88.1473L133.727 69.1341L125.733 50.5895C125.207 49.3676 124.269 48.3687 123.083 47.7664C121.897 47.164 120.538 46.9961 119.242 47.2919C118.394 47.4853 117.601 47.8705 116.925 48.4181C116.249 48.9657 115.708 49.661 115.342 50.4506C114.976 51.2403 114.796 52.1033 114.816 52.9733C114.835 53.8434 115.054 54.6975 115.455 55.4699L125.887 75.5787L146.425 93.5569Z" fill="#E6E6E6"/>
<path d="M157.563 165.218L156.67 163.83H155.02V163.225H156.999L158.072 164.89L157.563 165.218Z" fill="#3F3D56"/>
<path d="M153.861 163.829H150.383V163.224H153.861V163.829ZM149.224 163.829H145.746V163.224H149.224V163.829ZM144.587 163.829H141.109V163.224H144.587L144.587 163.829ZM139.95 163.829H136.472V163.224H139.95V163.829ZM135.313 163.829H131.836V163.224H135.313V163.829ZM130.676 163.829L127.454 163.827L127.161 163.788L127.241 163.188L127.514 163.224H130.676V163.829ZM126.012 163.635L122.565 163.177L122.645 162.577L126.092 163.035L126.012 163.635ZM121.416 163.024L117.968 162.565L118.048 161.965L121.495 162.424L121.416 163.024ZM116.819 162.413L113.372 161.954L113.452 161.354L116.899 161.813L116.819 162.413ZM112.223 161.802L108.775 161.343L108.855 160.743L112.303 161.202L112.223 161.802Z" fill="#3F3D56"/>
<path d="M106.118 162.475L105.514 162.458L105.575 160.307L107.707 160.59L107.627 161.19L106.161 160.996L106.118 162.475Z" fill="#3F3D56"/>
<path d="M105.655 178.682L105.051 178.665L105.166 174.613L105.771 174.63L105.655 178.682ZM105.81 173.28L105.205 173.262L105.321 169.211L105.925 169.228L105.81 173.28ZM105.964 167.877L105.359 167.86L105.475 163.809L106.079 163.826L105.964 167.877Z" fill="#3F3D56"/>
<path d="M104.951 182.167L105.013 180.016L105.617 180.033L105.575 181.512L107.049 181.397L107.096 182.001L104.951 182.167Z" fill="#3F3D56"/>
<path d="M108.254 181.91L108.207 181.307L111.68 181.036L111.727 181.64L108.254 181.91ZM112.885 181.55L112.838 180.947L116.311 180.676L116.358 181.28L112.885 181.55ZM117.515 181.19L117.468 180.587L120.942 180.316L120.988 180.92L117.515 181.19ZM122.146 180.83L122.099 180.227L125.572 179.956L125.619 180.56L122.146 180.83ZM126.776 180.47L126.73 179.867L130.203 179.596L130.25 180.2L126.776 180.47ZM131.407 180.11L131.361 179.506L134.833 179.236L134.88 179.84L131.407 180.11ZM136.038 179.75L135.991 179.146L139.464 178.876L139.511 179.48L136.038 179.75ZM140.669 179.39L140.622 178.786L144.095 178.516L144.141 179.12L140.669 179.39ZM145.299 179.03L145.252 178.426L148.726 178.156L148.772 178.76L145.299 179.03ZM149.93 178.67L149.883 178.066L153.356 177.796L153.403 178.4L149.93 178.67ZM154.56 178.31L154.514 177.706L157.987 177.436L158.034 178.04L154.56 178.31ZM159.191 177.95L159.145 177.346L162.617 177.076L162.664 177.68L159.191 177.95Z" fill="#3F3D56"/>
<path d="M163.82 177.59L163.773 176.986L165.078 176.885L164.369 175.785L164.878 175.457L166.135 177.41L163.82 177.59Z" fill="#3F3D56"/>
<path d="M163.614 174.611L161.345 171.088L161.854 170.76L164.122 174.283L163.614 174.611ZM160.589 169.914L158.32 166.392L158.829 166.063L161.098 169.586L160.589 169.914Z" fill="#3F3D56"/>
<path d="M152.449 190.617C163.809 190.617 173.018 181.402 173.018 170.034C173.018 158.667 163.809 149.452 152.449 149.452C141.09 149.452 131.881 158.667 131.881 170.034C131.881 181.402 141.09 190.617 152.449 190.617Z" fill="#6C63FF"/>
<path d="M169.388 193.947L139.291 140.523L132.637 147.182L162.28 193.795L169.388 193.947Z" fill="#3F3D56"/>
<path d="M78.1914 192.585L145.795 124.027L151.391 135.075L87.2658 195.611L78.1914 192.585Z" fill="#3F3D56"/>
<path d="M105.717 185.32C113.234 185.32 119.329 179.222 119.329 171.7C119.329 164.177 113.234 158.079 105.717 158.079C98.1996 158.079 92.1055 164.177 92.1055 171.7C92.1055 179.222 98.1996 185.32 105.717 185.32Z" fill="#3F3D56"/>
<path d="M87.5681 175.634C87.4879 175.634 87.411 175.666 87.3543 175.723C87.2976 175.779 87.2657 175.856 87.2656 175.936V178.358C87.2657 178.438 87.2976 178.515 87.3543 178.572C87.411 178.629 87.4879 178.661 87.5681 178.661H95.1301C95.2103 178.661 95.2872 178.629 95.3439 178.572C95.4006 178.515 95.4325 178.438 95.4326 178.358V175.936C95.4325 175.856 95.4006 175.779 95.3439 175.723C95.2872 175.666 95.2103 175.634 95.1301 175.634H87.5681Z" fill="#6C63FF"/>
<path d="M104.961 141.885C104.88 141.885 104.804 141.917 104.747 141.974C104.69 142.03 104.658 142.107 104.658 142.187V144.609C104.658 144.689 104.69 144.766 104.747 144.823C104.804 144.88 104.88 144.911 104.961 144.912H112.523C112.603 144.911 112.68 144.88 112.736 144.823C112.793 144.766 112.825 144.689 112.825 144.609V142.187C112.825 142.107 112.793 142.03 112.736 141.974C112.68 141.917 112.603 141.885 112.523 141.885H104.961Z" fill="#6C63FF"/>
<path d="M141.712 136.891H133.848V130.838L136.872 129.627L141.712 133.259V136.891Z" fill="#3F3D56"/>
<path d="M134.842 128.093L134.021 128.481L135.574 131.765L136.394 131.377L134.842 128.093Z" fill="#3F3D56"/>
<path d="M135.712 124.165C135.655 124.165 135.598 124.182 135.55 124.213L130.207 127.652C130.14 127.695 130.092 127.764 130.075 127.842C130.058 127.92 130.073 128.002 130.116 128.07L131.425 130.107C131.469 130.174 131.537 130.221 131.615 130.238C131.694 130.256 131.776 130.241 131.843 130.197L137.186 126.759V126.759C137.253 126.716 137.301 126.647 137.318 126.569C137.335 126.49 137.32 126.408 137.277 126.341L135.968 124.304C135.946 124.271 135.918 124.242 135.886 124.219C135.853 124.196 135.816 124.18 135.777 124.172C135.756 124.167 135.734 124.165 135.712 124.165Z" fill="#6C63FF"/>
<path d="M147.761 136.285L141.561 106.169L148.82 104.958L153.77 129.22C153.983 130.099 153.984 131.016 153.775 131.897C153.565 132.777 153.151 133.595 152.565 134.284C151.979 134.974 151.238 135.514 150.403 135.862C149.568 136.21 148.663 136.355 147.761 136.285Z" fill="#3F3D56"/>
<path d="M170.608 100.235L163.427 99.7216C163.331 99.7147 163.238 99.6851 163.156 99.635C163.074 99.585 163.005 99.516 162.954 99.4339C162.904 99.3518 162.874 99.2588 162.867 99.1628C162.86 99.0667 162.876 98.9704 162.913 98.8817L173.344 74.2356C173.384 74.1428 173.446 74.0613 173.524 73.9985C173.603 73.9356 173.696 73.8934 173.795 73.8757L180.878 72.61C180.984 72.5911 181.093 72.6008 181.194 72.638C181.295 72.6752 181.384 72.7387 181.452 72.8219C181.521 72.9051 181.565 73.0049 181.582 73.1112C181.599 73.2175 181.587 73.3263 181.548 73.4265L171.215 99.8517C171.168 99.9719 171.084 100.074 170.974 100.143C170.865 100.212 170.737 100.244 170.608 100.235Z" fill="#3F3D56"/>
<path d="M164.396 97.8456L170.144 98.4509L179.52 74.8418L173.471 75.7498L164.396 97.8456Z" fill="#6C63FF"/>
<path d="M101.783 162.619L94.2213 170.186L83.332 122.665L89.3816 123.573L101.783 162.619Z" fill="#3F3D56"/>
<path d="M92.9722 123.501L91.666 123.108C89.0997 124.241 86.3074 124.766 83.5053 124.645C82.9001 124.62 82.3283 124.361 81.9102 123.922C81.4921 123.484 81.2604 122.9 81.2637 122.294C81.2637 121.67 81.5115 121.071 81.9526 120.63C82.3936 120.188 82.9918 119.94 83.6156 119.94H95.0243C95.3331 119.94 95.6293 120.063 95.8477 120.282C96.0661 120.5 96.1888 120.797 96.1888 121.106C96.1888 121.496 96.0977 121.88 95.9228 122.228C95.748 122.576 95.4942 122.879 95.1816 123.112C94.8691 123.344 94.5066 123.501 94.123 123.568C93.7393 123.636 93.3453 123.613 92.9722 123.501Z" fill="#3F3D56"/>
<path d="M165.235 93.7832C164.943 93.7828 164.659 93.8786 164.427 94.056L155.14 101.162L144.745 102.519C142.955 102.753 141.716 104.701 141.561 106.472L153.797 104.772C155.497 104.608 157.103 103.918 158.393 102.798L166.107 96.122C166.312 95.9445 166.459 95.7082 166.526 95.4449C166.594 95.1816 166.579 94.9039 166.484 94.6493C166.389 94.3946 166.219 94.1751 165.995 94.0202C165.772 93.8654 165.507 93.7827 165.235 93.7832Z" fill="#3F3D56"/>
<path d="M160.698 89.2422C160.406 89.2417 160.122 89.3376 159.89 89.515L150.603 96.6211L140.208 97.9778C138.418 98.2115 137.179 100.16 137.023 101.931L149.26 100.231C150.959 100.067 152.566 99.3768 153.856 98.2569L161.569 91.581C161.775 91.4035 161.922 91.1671 161.989 90.9039C162.056 90.6406 162.042 90.3629 161.947 90.1083C161.852 89.8536 161.681 89.6341 161.458 89.4792C161.235 89.3244 160.97 89.2417 160.698 89.2422Z" fill="#3F3D56"/>
<path d="M166.363 107.531C164.2 107.527 162.069 107.014 160.14 106.036C158.212 105.057 156.539 103.639 155.258 101.896L156.477 101.001C157.455 102.338 158.694 103.463 160.119 104.307C161.544 105.152 163.125 105.698 164.766 105.914C166.408 106.13 168.076 106.01 169.671 105.563C171.265 105.115 172.752 104.349 174.042 103.31C175.332 102.272 176.399 100.982 177.177 99.5194C177.955 98.0567 178.428 96.4514 178.569 94.8004C178.709 93.1494 178.514 91.487 177.995 89.9137C177.475 88.3404 176.642 86.8888 175.547 85.6466L176.68 84.6445C178.434 86.6319 179.576 89.0834 179.972 91.7047C180.367 94.3261 179.997 97.0058 178.908 99.4223C177.819 101.839 176.055 103.889 173.83 105.328C171.605 106.766 169.012 107.531 166.363 107.531V107.531Z" fill="#3F3D56"/>
<path d="M176.951 192.433H69.873V200H176.951V192.433Z" fill="#3F3D56"/>
<path d="M150.71 103.506C151.244 103.292 151.708 102.932 152.049 102.467C152.39 102.003 152.594 101.452 152.638 100.877C152.682 100.302 152.564 99.727 152.297 99.216C152.031 98.7051 151.627 98.2791 151.13 97.9863L144.736 94.2129L140.199 96.6343L147.553 102.978C147.98 103.347 148.501 103.591 149.057 103.684C149.614 103.777 150.186 103.715 150.71 103.506Z" fill="#FFB9B9"/>
<path d="M100.575 130.232L104.809 132.653L130.958 113.393C131.917 112.738 132.73 111.891 133.346 110.905C133.962 109.92 134.368 108.818 134.538 107.669C134.751 106.215 134.581 104.731 134.047 103.363C133.512 101.995 132.631 100.79 131.489 99.8665C125.714 95.1731 118.577 90.916 111.01 86.7969L99.8184 92.2451C104.431 101.709 109.551 109.512 117.06 109.498L100.575 130.232Z" fill="#6C63FF"/>
<path d="M98.7291 136.397C102.243 139.959 106.869 142.508 112.037 144.564C112.426 144.718 112.854 144.748 113.261 144.649C113.668 144.55 114.035 144.327 114.31 144.011C114.645 143.627 114.822 143.132 114.808 142.623C114.794 142.114 114.59 141.63 114.235 141.265L110.885 137.824L108.861 130.611C104.515 132.76 101.665 132.279 101.103 127.775L98.3638 131.514C97.8344 132.238 97.5803 133.128 97.6472 134.023C97.7142 134.918 98.0977 135.76 98.7291 136.397Z" fill="#2F2E41"/>
<path d="M86.9633 168.37L93.3154 168.673L107.834 93.9107L82.8798 85.8896C80.3884 95.2108 84.0875 110.468 90.5931 128.416L86.9633 168.37Z" fill="#6C63FF"/>
<path d="M135.814 45.0277C141.327 45.0277 145.796 40.5557 145.796 35.0393C145.796 29.5228 141.327 25.0508 135.814 25.0508C130.301 25.0508 125.832 29.5228 125.832 35.0393C125.832 40.5557 130.301 45.0277 135.814 45.0277Z" fill="#FFB9B9"/>
<path d="M117.514 47.2978L123.866 51.838L133.545 42.1523L128.705 36.0986L117.514 47.2978Z" fill="#FFB9B9"/>
<path d="M81.8203 86.6461C89.654 93.0341 98.2084 97.233 108.741 95.4239C111.924 90.3321 114.274 79.6061 118.269 74.9929C126.994 64.9186 131.321 55.9391 128.553 47.7516C125.862 45.9912 125.981 45.9941 124.016 40.1846C108.627 43.0336 93.7286 60.4173 81.8203 86.6461Z" fill="#E6E6E6"/>
<path d="M86.8609 174.599C91.3822 176.739 96.6018 177.545 102.161 177.702C102.579 177.713 102.992 177.594 103.34 177.361C103.688 177.129 103.956 176.793 104.107 176.402C104.289 175.927 104.286 175.401 104.099 174.927C103.911 174.454 103.553 174.069 103.094 173.849L98.7681 171.766L94.394 165.686C91.0487 169.197 88.2069 169.723 86.1351 165.686L84.8435 170.137C84.5945 171 84.6609 171.923 85.0306 172.74C85.4003 173.558 86.0493 174.217 86.8609 174.599Z" fill="#2F2E41"/>
<path d="M139.593 98.7527L145.34 94.5152L132.636 72.1168L128.961 52.2584C128.719 50.9499 128.027 49.7676 127.004 48.9166C125.982 48.0655 124.694 47.5996 123.364 47.5996C122.494 47.5996 121.636 47.799 120.855 48.1826C120.075 48.5661 119.392 49.1236 118.86 49.8122C118.328 50.5008 117.961 51.3022 117.787 52.1549C117.613 53.0075 117.636 53.8888 117.856 54.731L123.562 76.657L139.593 98.7527Z" fill="#E6E6E6"/>
<path d="M110.708 144.609H107.381V162.77H110.708V144.609Z" fill="#3F3D56"/>
<path d="M143.714 32.1419C144.105 32.6106 144.606 32.9747 145.173 33.2012C145.739 33.4277 146.353 33.5095 146.959 33.4394C148.161 33.252 149.23 32.2263 149.307 31.0119C149.373 29.9632 148.757 29.0013 148.111 28.1732C146.685 26.3471 144.991 24.7471 143.087 23.4273C142.179 22.7983 141.177 22.2193 140.075 22.1515C139.53 22.118 138.983 22.212 138.437 22.1886C137.434 22.1454 136.493 21.7108 135.514 21.4857C134.509 21.2616 133.467 21.2561 132.459 21.4698C131.451 21.6835 130.501 22.1112 129.673 22.7241C129.121 23.1463 128.622 23.6335 128.186 24.1751C126.98 25.6507 126.171 27.4104 125.837 29.2868C125.31 32.2612 125.967 35.5233 124.539 38.1845C126.215 38.0278 127.559 36.749 129.151 36.2024C130.332 35.8011 131.615 35.8125 132.789 36.2349C133.091 36.3901 133.432 36.4539 133.771 36.4186C134.05 36.32 134.294 36.1414 134.472 35.905L137.517 32.59C138.137 31.9153 138.841 31.1965 139.752 31.1031C140.295 31.0843 140.836 31.1917 141.332 31.4168C142.552 31.8787 143.733 32.4401 144.862 33.0955" fill="#2F2E41"/>
<path d="M137.931 101.326L137.023 101.931L143.073 107.985L146.703 104.655L140.653 99.8125L137.931 101.326Z" fill="#3F3D56"/>
<path d="M25.1931 73.6125L24.3066 71.9277L17.9461 75.2786L18.8326 76.9634L25.1931 73.6125Z" fill="#E6E6E6"/>
<path d="M217.019 176.051C217.019 176.051 201.405 124.714 224.397 127.169C247.39 129.624 217.019 176.051 217.019 176.051Z" fill="#07565A"/>
</svg>
