<svg width="305" height="231" viewBox="0 0 305 231" fill="none" xmlns="http://www.w3.org/2000/svg">
<path d="M143.858 193.08C143.858 193.08 147.727 186.725 152.695 190.482C157.662 194.24 166.862 200.58 166.862 200.58C166.862 200.58 168.746 204.635 163.869 203.112C158.992 201.589 143.072 199.137 143.072 199.137L143.858 193.08Z" fill="#FEB8B8"/>
<path d="M35.7305 152.72C36.9635 142.794 43.108 133.013 52.5636 129.783C48.8346 140 48.8354 151.208 52.5659 161.424C54.0188 165.359 56.0441 169.584 54.6774 173.549C53.827 176.017 51.7468 177.905 49.4215 179.085C47.0961 180.266 44.5153 180.828 41.9669 181.38L41.4653 181.795C37.4197 172.649 34.4975 162.646 35.7305 152.72Z" fill="#0A3D40"/>
<path d="M52.6578 129.97C47.1513 136.147 43.7289 143.904 42.8766 152.14C42.6617 153.909 42.7267 155.702 43.0693 157.451C43.4581 159.144 44.2926 160.702 45.4863 161.963C46.5756 163.162 47.8285 164.261 48.608 165.704C48.996 166.448 49.2225 167.266 49.2726 168.104C49.3227 168.942 49.1953 169.782 48.8987 170.567C48.2105 172.543 46.8542 174.154 45.4731 175.683C43.9397 177.38 42.32 179.119 41.6682 181.37C41.5892 181.643 41.1712 181.504 41.2501 181.232C42.3841 177.316 46.1808 175.092 47.9914 171.565C48.8363 169.919 49.1909 168.009 48.3989 166.272C47.7063 164.753 46.4152 163.618 45.3017 162.414C44.1193 161.201 43.2515 159.716 42.7743 158.09C42.3438 156.364 42.2099 154.577 42.3783 152.806C42.6938 148.812 43.6346 144.893 45.1662 141.192C46.8907 136.958 49.3259 133.051 52.3664 129.64C52.5547 129.429 52.8448 129.761 52.6578 129.97Z" fill="white"/>
<path d="M42.9947 149.472C41.6341 149.142 40.4351 148.337 39.612 147.203C38.7889 146.069 38.3953 144.679 38.5014 143.282C38.5238 142.999 38.9637 143.02 38.9413 143.304C38.8401 144.605 39.2069 145.9 39.9755 146.954C40.7441 148.009 41.8639 148.753 43.1328 149.054C43.4085 149.119 43.2688 149.538 42.9947 149.472Z" fill="white"/>
<path d="M44.8531 161.429C47.3107 159.96 49.1249 157.617 49.9339 154.868C50.0139 154.596 50.4319 154.735 50.3521 155.007C49.5048 157.865 47.6119 160.299 45.0512 161.822C44.807 161.967 44.6103 161.573 44.8531 161.429Z" fill="white"/>
<path d="M47.2991 137.376C47.799 137.614 48.35 137.724 48.9026 137.696C49.4553 137.668 49.9924 137.503 50.4656 137.215C50.7078 137.067 50.9043 137.462 50.6637 137.609C50.1394 137.924 49.546 138.106 48.9354 138.138C48.3249 138.17 47.7157 138.053 47.1611 137.795C47.1067 137.775 47.062 137.735 47.036 137.683C47.01 137.632 47.0047 137.572 47.021 137.516C47.0396 137.461 47.0792 137.415 47.1313 137.389C47.1833 137.363 47.2437 137.358 47.2991 137.376Z" fill="white"/>
<path d="M81.385 147.512C81.2363 147.609 81.0877 147.706 80.9389 147.806C78.9476 149.117 77.0659 150.588 75.3125 152.204C75.1749 152.327 75.0374 152.453 74.9036 152.58C70.7206 156.519 67.3044 161.2 64.8286 166.387C63.8453 168.452 63.0203 170.589 62.3608 172.78C61.4502 175.805 60.7033 179.157 58.9009 181.631C58.7157 181.891 58.5146 182.14 58.2988 182.375H42.0098C41.9728 182.357 41.9356 182.342 41.8984 182.323L41.248 182.353C41.2742 182.238 41.3038 182.119 41.3299 182.003C41.3448 181.936 41.3633 181.869 41.3782 181.802C41.3892 181.758 41.4005 181.713 41.4079 181.672C41.4115 181.657 41.4153 181.642 41.419 181.631C41.4264 181.59 41.4377 181.553 41.4451 181.516C41.6086 180.85 41.7771 180.184 41.9505 179.518C41.9505 179.514 41.9505 179.514 41.9541 179.51C43.2884 174.439 45.0573 169.435 47.5287 164.858C47.6031 164.721 47.6773 164.579 47.7592 164.442C48.8846 162.385 50.176 160.424 51.6205 158.578C52.4148 157.569 53.2595 156.602 54.1514 155.679C56.4606 153.3 59.1294 151.298 62.0598 149.749C67.902 146.66 74.6657 145.477 80.9094 147.364C81.069 147.412 81.2253 147.46 81.385 147.512Z" fill="#0A3D40"/>
<path d="M81.3488 147.72C73.2376 149.333 65.8401 153.463 60.2072 159.525C58.9714 160.808 57.9454 162.279 57.167 163.882C56.4591 165.468 56.1884 167.215 56.3831 168.942C56.5323 170.555 56.8715 172.188 56.6263 173.81C56.4885 174.638 56.1774 175.428 55.7134 176.127C55.2494 176.826 54.643 177.42 53.9339 177.868C52.196 179.031 50.1444 179.499 48.1223 179.888C45.877 180.319 43.5381 180.731 41.6642 182.135C41.4371 182.305 41.1867 181.943 41.4134 181.773C44.6737 179.33 49.0427 179.843 52.6093 178.118C54.2735 177.313 55.7056 176.002 56.1179 174.137C56.4784 172.507 56.13 170.822 55.9648 169.19C55.7503 167.509 55.9503 165.8 56.5472 164.214C57.2416 162.576 58.2093 161.069 59.4089 159.756C62.0625 156.758 65.1704 154.196 68.6189 152.164C72.5418 149.823 76.8358 148.171 81.315 147.28C81.5923 147.225 81.6243 147.665 81.3488 147.72H81.3488Z" fill="white"/>
<path d="M61.9057 157.466C61.0182 156.382 60.5445 155.017 60.5693 153.615C60.5941 152.214 61.1157 150.867 62.041 149.815C62.2289 149.602 62.5672 149.885 62.379 150.097C61.5155 151.075 61.0298 152.33 61.0094 153.636C60.989 154.941 61.4352 156.21 62.2677 157.215C62.4483 157.434 62.0853 157.683 61.9057 157.466H61.9057Z" fill="white"/>
<path d="M56.1998 168.134C59.0455 168.442 61.9027 167.665 64.2017 165.958C64.4294 165.789 64.6798 166.151 64.4525 166.32C62.0567 168.092 59.0817 168.895 56.1212 168.567C55.839 168.536 55.9192 168.102 56.1998 168.134Z" fill="white"/>
<path d="M72.6172 150.402C72.8733 150.893 73.2472 151.313 73.7054 151.624C74.1636 151.934 74.6917 152.126 75.2422 152.182C75.5247 152.21 75.4442 152.644 75.1636 152.616C74.5556 152.551 73.9726 152.339 73.4656 151.997C72.9586 151.654 72.5431 151.193 72.2552 150.653C72.2238 150.604 72.2121 150.546 72.2224 150.489C72.2327 150.432 72.2644 150.381 72.3108 150.346C72.3589 150.313 72.4181 150.301 72.4754 150.311C72.5328 150.322 72.5837 150.354 72.6172 150.402Z" fill="white"/>
<path d="M167.103 217.019C167.581 213.172 169.962 209.382 173.626 208.13C172.181 212.089 173 215.189 174.446 219.149C175.009 220.674 174.975 223.555 174.446 225.092C174.066 226.042 173.337 226.81 172.409 227.237C171.488 227.656 170.517 227.955 169.52 228.126L169.325 228.287C167.757 224.743 166.625 220.866 167.103 217.019Z" fill="#07565A"/>
<path d="M173.661 209.69C171.527 212.084 170.201 215.091 169.87 218.282C169.787 218.968 169.812 219.663 169.945 220.341C170.096 220.997 170.419 221.601 170.882 222.089C171.342 222.522 171.749 223.009 172.092 223.539C172.242 223.827 172.33 224.144 172.349 224.469C172.369 224.794 172.319 225.119 172.204 225.424C171.899 226.167 171.447 226.841 170.877 227.406C170.282 228.064 169.655 228.738 169.402 229.61C169.372 229.716 169.21 229.662 169.24 229.557C169.68 228.039 171.151 227.177 171.853 225.811C172.034 225.503 172.142 225.159 172.169 224.803C172.197 224.448 172.142 224.09 172.011 223.759C171.692 223.2 171.287 222.695 170.81 222.264C170.352 221.794 170.016 221.218 169.831 220.588C169.664 219.919 169.612 219.227 169.677 218.54C169.8 216.993 170.164 215.474 170.758 214.039C171.426 212.399 172.37 210.884 173.548 209.562C173.621 209.481 173.734 209.609 173.661 209.69H173.661Z" fill="white"/>
<path d="M169.918 217.248C169.391 217.12 168.926 216.808 168.607 216.369C168.288 215.929 168.135 215.39 168.177 214.849C168.185 214.739 168.356 214.747 168.347 214.857C168.308 215.361 168.45 215.863 168.748 216.272C169.046 216.681 169.48 216.969 169.971 217.086C170.078 217.111 170.024 217.273 169.918 217.248H169.918Z" fill="white"/>
<path d="M170.637 221.882C171.589 221.313 172.292 220.405 172.606 219.339C172.637 219.234 172.799 219.288 172.768 219.393C172.44 220.501 171.706 221.444 170.714 222.035C170.619 222.091 170.543 221.938 170.637 221.882Z" fill="white"/>
<path d="M171.586 212.56C171.78 212.653 171.993 212.695 172.207 212.684C172.422 212.673 172.63 212.609 172.813 212.498C172.907 212.441 172.983 212.594 172.89 212.651C172.687 212.773 172.457 212.843 172.22 212.856C171.984 212.868 171.747 212.822 171.532 212.723C171.511 212.715 171.494 212.699 171.484 212.679C171.474 212.659 171.472 212.636 171.478 212.615C171.485 212.593 171.501 212.576 171.521 212.565C171.541 212.555 171.565 212.553 171.586 212.56L171.586 212.56Z" fill="white"/>
<path d="M184.795 216.489C184.738 216.527 184.68 216.564 184.623 216.603C183.851 217.111 183.122 217.681 182.442 218.307C182.389 218.355 182.335 218.404 182.284 218.453C180.662 219.979 179.338 221.794 178.379 223.804C177.998 224.604 177.678 225.433 177.423 226.281C177.07 227.454 176.78 228.753 176.082 229.712C176.01 229.813 175.932 229.909 175.848 230H169.535C169.521 229.993 169.507 229.987 169.492 229.98L169.24 229.992C169.25 229.947 169.262 229.901 169.272 229.856C169.278 229.83 169.285 229.804 169.291 229.778C169.295 229.761 169.299 229.744 169.302 229.728C169.304 229.722 169.305 229.716 169.306 229.712C169.309 229.696 169.314 229.682 169.317 229.667C169.38 229.409 169.445 229.151 169.512 228.893L169.514 228.89C170.007 226.918 170.732 225.012 171.674 223.212C171.703 223.158 171.732 223.103 171.764 223.05C172.2 222.253 172.7 221.493 173.26 220.777C173.568 220.387 173.895 220.012 174.241 219.654C175.136 218.732 176.17 217.956 177.306 217.356C179.57 216.159 182.191 215.7 184.611 216.431C184.673 216.45 184.734 216.469 184.795 216.489Z" fill="#07565A"/>
<path d="M184.781 216.569C181.638 217.194 178.771 218.795 176.588 221.144C176.109 221.641 175.711 222.211 175.409 222.832C175.135 223.447 175.03 224.124 175.106 224.793C175.213 225.416 175.245 226.05 175.2 226.68C175.147 227.001 175.026 227.307 174.846 227.578C174.666 227.849 174.431 228.079 174.156 228.253C173.466 228.662 172.7 228.928 171.904 229.035C171.034 229.203 170.128 229.362 169.401 229.906C169.313 229.972 169.216 229.832 169.304 229.766C170.568 228.819 172.261 229.018 173.643 228.35C173.972 228.213 174.266 228.003 174.502 227.736C174.737 227.469 174.909 227.151 175.003 226.807C175.085 226.169 175.065 225.521 174.944 224.89C174.86 224.238 174.938 223.576 175.169 222.961C175.438 222.326 175.813 221.742 176.278 221.233C177.307 220.071 178.511 219.078 179.848 218.291C181.368 217.384 183.032 216.744 184.768 216.398C184.876 216.377 184.888 216.548 184.781 216.569H184.781Z" fill="white"/>
<path d="M177.247 220.283C176.903 219.862 176.719 219.333 176.729 218.79C176.738 218.247 176.941 217.725 177.299 217.317C177.372 217.235 177.503 217.344 177.43 217.427C177.096 217.806 176.907 218.292 176.899 218.798C176.892 219.304 177.065 219.796 177.387 220.185C177.457 220.27 177.316 220.367 177.247 220.283Z" fill="white"/>
<path d="M175.034 224.48C176.137 224.6 177.244 224.299 178.135 223.637C178.224 223.572 178.321 223.712 178.233 223.778C177.304 224.464 176.151 224.775 175.004 224.648C174.894 224.636 174.925 224.468 175.034 224.48H175.034Z" fill="white"/>
<path d="M181.397 217.609C181.496 217.799 181.641 217.962 181.818 218.082C181.996 218.203 182.201 218.277 182.414 218.299C182.523 218.31 182.492 218.478 182.383 218.467C182.148 218.442 181.922 218.36 181.725 218.227C181.529 218.094 181.368 217.915 181.256 217.706C181.244 217.687 181.24 217.665 181.244 217.642C181.248 217.62 181.26 217.601 181.278 217.587C181.297 217.575 181.319 217.57 181.342 217.574C181.364 217.578 181.384 217.59 181.397 217.609Z" fill="white"/>
<path d="M205.389 128.789C205.617 128.938 205.846 129.087 206.074 129.241C209.135 131.256 212.027 133.517 214.722 136.001C214.934 136.189 215.145 136.384 215.351 136.578C221.78 142.632 227.031 149.828 230.837 157.801C232.348 160.975 233.616 164.259 234.63 167.626C236.029 172.276 237.177 177.428 239.948 181.231C240.232 181.631 240.541 182.013 240.873 182.375H265.91C265.967 182.346 266.024 182.324 266.081 182.295L267.081 182.341C267.041 182.163 266.995 181.98 266.955 181.803C266.932 181.7 266.904 181.597 266.881 181.494C266.864 181.426 266.847 181.357 266.835 181.294C266.83 181.271 266.824 181.248 266.818 181.231C266.807 181.168 266.79 181.111 266.778 181.054C266.527 180.03 266.268 179.007 266.001 177.983C266.001 177.977 266.001 177.977 265.996 177.972C263.945 170.177 261.226 162.485 257.427 155.451C257.313 155.239 257.199 155.022 257.073 154.81C255.343 151.649 253.358 148.635 251.138 145.797C249.917 144.247 248.619 142.76 247.248 141.342C243.699 137.684 239.597 134.608 235.092 132.226C226.113 127.48 215.716 125.661 206.12 128.56C205.874 128.635 205.634 128.709 205.389 128.789Z" fill="#07565A"/>
<path d="M205.444 129.108C217.912 131.587 229.282 137.936 237.94 147.253C239.783 149.26 241.477 151.457 242.613 153.95C243.701 156.388 244.117 159.073 243.818 161.727C243.588 164.207 243.067 166.717 243.444 169.209C243.841 171.836 245.399 173.986 247.582 175.447C250.253 177.234 253.407 177.955 256.515 178.551C259.966 179.214 263.561 179.848 266.441 182.006C266.79 182.267 267.175 181.71 266.827 181.449C261.816 177.694 255.1 178.482 249.618 175.831C247.06 174.594 244.859 172.578 244.225 169.712C243.671 167.207 244.207 164.618 244.461 162.109C244.727 159.474 244.545 156.942 243.565 154.46C242.563 151.922 240.95 149.654 239.167 147.608C235.088 143 230.311 139.062 225.011 135.939C218.981 132.341 212.381 129.802 205.496 128.432C205.07 128.348 205.021 129.024 205.444 129.108V129.108Z" fill="white"/>
<path d="M235.328 144.088C236.692 142.422 237.42 140.324 237.382 138.17C237.344 136.015 236.542 133.945 235.12 132.328C234.831 132.001 234.311 132.435 234.6 132.762C235.928 134.266 236.674 136.194 236.706 138.201C236.737 140.207 236.051 142.158 234.772 143.702C234.494 144.038 235.052 144.422 235.328 144.088L235.328 144.088Z" fill="white"/>
<path d="M244.1 160.485C239.726 160.959 235.334 159.765 231.8 157.141C231.451 156.881 231.066 157.438 231.415 157.698C235.097 160.421 239.67 161.655 244.221 161.151C244.654 161.103 244.531 160.437 244.1 160.485Z" fill="white"/>
<path d="M218.866 133.231C218.472 133.986 217.897 134.631 217.193 135.109C216.489 135.586 215.677 135.881 214.831 135.967C214.397 136.01 214.521 136.677 214.952 136.634C215.886 136.535 216.783 136.208 217.562 135.682C218.341 135.156 218.98 134.447 219.422 133.617C219.471 133.542 219.489 133.452 219.473 133.364C219.457 133.277 219.408 133.199 219.337 133.146C219.263 133.095 219.172 133.075 219.084 133.091C218.996 133.107 218.917 133.158 218.866 133.231V133.231Z" fill="white"/>
<path d="M304.75 182.747H1.37164C1.27307 182.747 1.17855 182.708 1.10885 182.638C1.03915 182.568 1 182.474 1 182.375C1 182.276 1.03915 182.182 1.10885 182.112C1.17855 182.042 1.27307 182.003 1.37164 182.003H304.628C304.727 182.003 304.821 182.042 304.891 182.112C304.961 182.182 305 182.276 305 182.375C305 182.58 304.955 182.747 304.75 182.747Z" fill="#CACACA"/>
<path d="M124.851 200.979C120.688 200.979 116.876 200.58 113.848 199.636C110.249 198.514 107.989 196.699 107.13 194.239C106.727 193.194 106.606 192.061 106.781 190.955C106.956 189.848 107.419 188.808 108.125 187.939C113.45 180.992 131.927 179.033 134.406 178.802L139.436 169.267C139.758 166.992 138.235 165.269 140.866 165.226L171.985 164.803C174.569 164.749 173.835 166.35 174.278 168.569L179.019 177.042L158.614 185.664L161.699 193.191L161.498 193.308C155.525 196.776 138.351 200.979 124.851 200.979Z" fill="#2F2E41"/>
<path d="M176.195 177.403C176.195 177.403 204.693 174.138 202.834 187.198C200.976 200.258 179.293 209.509 146.459 187.198L150.176 180.668C150.176 180.668 162.411 180.059 169.845 176.794L176.195 177.403Z" fill="#2F2E41"/>
<path d="M135.851 118.237C135.851 118.237 130.435 117.251 128.958 125.631C127.481 134.012 125.114 153.862 125.114 153.862L117.767 179.362C116.901 179.822 116.183 180.52 115.698 181.374C115.213 182.228 114.98 183.202 115.027 184.183C115.075 185.164 115.4 186.111 115.965 186.914C116.53 187.717 117.311 188.343 118.218 188.718C119.125 189.093 120.119 189.202 121.086 189.032C122.052 188.862 122.95 188.42 123.675 187.758C124.4 187.097 124.922 186.242 125.18 185.294C125.438 184.347 125.421 183.345 125.132 182.407L134.962 155.343L136.836 132.042V119.832C136.836 119.501 136.744 119.176 136.57 118.895C136.396 118.613 136.147 118.385 135.851 118.237Z" fill="#FEB8B8"/>
<path d="M173.975 118.237C173.975 118.237 179.391 117.251 180.868 125.631C182.346 134.012 184.712 153.862 184.712 153.862L192.059 179.362C192.925 179.822 193.643 180.52 194.128 181.374C194.613 182.228 194.846 183.202 194.799 184.183C194.751 185.164 194.426 186.111 193.861 186.914C193.296 187.717 192.515 188.343 191.608 188.718C190.701 189.093 189.707 189.202 188.741 189.032C187.774 188.862 186.876 188.42 186.151 187.758C185.426 187.097 184.904 186.242 184.646 185.294C184.389 184.347 184.405 183.345 184.695 182.407L174.864 155.343L172.99 132.042V119.832C172.99 119.501 173.082 119.176 173.256 118.895C173.43 118.613 173.679 118.385 173.975 118.237Z" fill="#FEB8B8"/>
<path d="M173.562 111.311L163.318 107.474L143.46 107.218L134.912 111.311L137.313 125.124C137.313 125.124 132.466 133.341 137.803 141.559L139 170.841C139 170.841 158.145 181.956 174.306 168.609L170.653 141.383C170.653 141.383 176.763 128.752 172.027 124.059L173.562 111.311Z" fill="#6C63FF"/>
<path d="M169.389 115.603L173.561 111.311C173.561 111.311 182.668 116.106 182.481 132.146L170.993 128.602L169.389 115.603Z" fill="#6C63FF"/>
<path d="M139.546 115.603L135.113 111.164C135.113 111.164 127.29 117.222 127.478 133.262L137.942 128.601L139.546 115.603Z" fill="#6C63FF"/>
<path d="M168.447 189.907C168.447 189.907 165.256 183.185 159.927 186.408C154.597 189.63 144.792 194.982 144.792 194.982C144.792 194.982 142.498 198.82 147.506 197.811C152.514 196.801 168.602 196.014 168.602 196.014L168.447 189.907Z" fill="#FEB8B8"/>
<path d="M159.581 69.7436C159.626 69.7002 159.673 69.6613 159.717 69.6168C162.569 66.7619 163.147 62.7116 161.008 60.5703C158.987 58.5468 155.264 58.9552 152.454 61.4155C150.045 59.119 146.814 58.4787 144.723 60.0641C142.312 61.8922 142.33 65.9835 144.765 69.2024C144.932 69.4228 145.107 69.6312 145.286 69.8317C142.046 71.019 139.249 73.1741 137.273 76.0055C135.296 78.8368 134.236 82.2077 134.236 85.6619V101.705C134.236 102.176 134.329 102.642 134.509 103.076C134.689 103.511 134.952 103.906 135.284 104.239C135.617 104.571 136.011 104.835 136.445 105.015C136.879 105.195 137.345 105.288 137.815 105.288H167.433C168.35 105.288 169.229 104.923 169.878 104.274C170.526 103.625 170.891 102.744 170.891 101.826V85.6619C170.89 82.1612 169.801 78.7475 167.774 75.8949C165.747 73.0424 162.884 70.8924 159.581 69.7436Z" fill="#2F2E41"/>
<path d="M162.97 99.5668C168.459 94.0718 168.459 85.1626 162.97 79.6676C157.482 74.1726 148.583 74.1726 143.094 79.6676C137.606 85.1626 137.606 94.0718 143.094 99.5668C148.583 105.062 157.482 105.062 162.97 99.5668Z" fill="#FFB6B6"/>
<path d="M138.264 80.7663C141.475 82.9825 145.287 84.162 149.188 84.1463C147.797 85.1122 146.213 85.7646 144.545 86.0587C149.731 87.1724 155.091 87.2025 160.289 86.1472C161.445 85.9617 162.56 85.5783 163.585 85.0139C164.096 84.7282 164.542 84.338 164.892 83.8687C165.243 83.3994 165.49 82.8615 165.62 82.2899C165.965 80.3143 164.427 78.5194 162.829 77.3097C160.383 75.4859 157.562 74.2293 154.571 73.6309C151.58 73.0325 148.493 73.1072 145.534 73.8496C143.602 74.3496 141.667 75.1944 140.412 76.7477C139.157 78.3011 138.785 80.6958 139.981 82.2953L138.264 80.7663Z" fill="#2F2E41"/>
<path d="M63.0902 52.6876L63.5331 52.0898L75.3323 60.852C74.691 58.8955 72.4214 52.693 68.7008 50.2182C64.2559 47.2617 61.1287 48.1814 59.4249 50.7487C57.7212 53.3161 58.086 56.5587 62.5309 59.5153C66.2987 62.0216 73.0107 61.6731 74.9689 61.5088L63.0902 52.6876Z" fill="#59AF59"/>
<path d="M240.62 4.71489L241.168 5.21809L231.236 16.0555C233.246 15.6205 239.644 14.0057 242.489 10.5584C245.889 6.44001 245.3 3.23049 242.927 1.26699C240.554 -0.696514 237.295 -0.67051 233.895 3.44787C231.013 6.93885 230.662 13.6584 230.621 15.6254L240.62 4.71489Z" fill="#59AF59"/>
<path d="M80.444 120.428L80.9918 120.931L71.06 131.768C73.0703 131.333 79.4681 129.719 82.3136 126.271C85.713 122.153 85.1246 118.943 82.7514 116.98C80.3781 115.016 77.1189 115.042 73.7193 119.161C70.8377 122.652 70.4858 129.371 70.4453 131.338L80.444 120.428Z" fill="#59AF59"/>
<path d="M164.426 17.134L165.069 17.5068L157.712 30.2371C159.58 29.3774 165.478 26.4164 167.513 22.4349C169.943 17.6783 168.675 14.672 165.934 13.2684C163.193 11.8648 160.017 12.5954 157.586 17.352C155.526 21.384 156.633 28.0209 157.019 29.9501L164.426 17.134Z" fill="#59AF59"/>
<path d="M233.179 96.7561L233.823 97.1289L226.465 109.859C228.334 108.999 234.232 106.039 236.266 102.057C238.696 97.3004 237.429 94.294 234.688 92.8904C231.947 91.4868 228.77 92.2175 226.34 96.9741C224.28 101.006 225.387 107.643 225.772 109.572L233.179 96.7561Z" fill="#59AF59"/>
<path d="M274.563 137.793C272.668 122.537 263.223 107.504 248.689 102.539C254.421 118.243 254.42 135.47 248.686 151.173C246.453 157.221 243.34 163.714 245.44 169.81C246.747 173.602 249.945 176.504 253.519 178.319C257.093 180.133 261.06 180.998 264.977 181.845L265.748 182.484C271.966 168.426 276.458 153.05 274.563 137.793Z" fill="#07565A"/>
<path d="M248.544 102.827C257.008 112.321 262.268 124.244 263.578 136.902C263.842 139.615 263.874 142.391 263.282 145.066C262.684 147.668 261.402 150.063 259.567 152.002C257.892 153.843 255.967 155.533 254.769 157.751C253.506 160.088 253.457 162.743 254.322 165.225C255.38 168.263 257.464 170.738 259.587 173.089C261.944 175.698 264.434 178.371 265.435 181.83C265.557 182.249 266.199 182.036 266.078 181.618C264.335 175.599 258.499 172.18 255.716 166.76C254.418 164.23 253.873 161.294 255.09 158.623C256.155 156.289 258.139 154.544 259.851 152.694C261.648 150.751 263.025 148.62 263.735 146.048C264.461 143.417 264.538 140.634 264.344 137.925C263.859 131.787 262.413 125.763 260.059 120.075C257.408 113.568 253.665 107.562 248.992 102.319C248.702 101.994 248.256 102.505 248.544 102.827L248.544 102.827Z" fill="white"/>
<path d="M263.396 132.802C265.487 132.294 267.33 131.057 268.595 129.314C269.86 127.571 270.465 125.435 270.302 123.286C270.268 122.852 269.591 122.885 269.626 123.32C269.781 125.32 269.218 127.311 268.036 128.931C266.855 130.552 265.134 131.697 263.183 132.158C262.76 132.259 262.974 132.902 263.396 132.802H263.396Z" fill="white"/>
<path d="M260.54 151.18C256.763 148.922 253.974 145.321 252.73 141.096C252.608 140.678 251.965 140.89 252.088 141.309C253.39 145.703 256.3 149.444 260.235 151.785C260.611 152.008 260.913 151.401 260.54 151.18Z" fill="white"/>
<path d="M256.781 114.21C256.013 114.575 255.166 114.744 254.317 114.701C253.467 114.658 252.642 114.404 251.914 113.962C251.542 113.735 251.24 114.341 251.61 114.568C252.416 115.052 253.328 115.331 254.266 115.38C255.205 115.43 256.141 115.249 256.994 114.853C257.077 114.823 257.146 114.761 257.186 114.682C257.226 114.602 257.234 114.511 257.209 114.425C257.18 114.34 257.119 114.27 257.039 114.229C256.959 114.189 256.867 114.182 256.781 114.21Z" fill="white"/>
</svg>
